<?xml version="1.0" encoding="UTF-8"?>
<svg width="1000px" height="1000px" viewBox="0 0 1000 1000" version="1.1" xmlns="http://www.w3.org/2000/svg" xmlns:xlink="http://www.w3.org/1999/xlink">
    <!-- Generator: Sketch 54.1 (76490) - https://sketchapp.com -->
    <title>3-ears/1/3</title>
    <desc>Created with Sketch.</desc>
    <g id="3-ears/1/3" stroke="none" stroke-width="1" fill="none" fill-rule="evenodd">
        <path d="M662.280254,451 C691.813901,451 701.560132,442.127215 690.680352,400.11491 C679.800571,358.102605 670.111058,335 640.577411,335 C611.043765,335 602.79555,364.49654 608.870909,400.11491 C614.946267,435.733281 632.746608,451 662.280254,451 Z" id="rightear" fill="#9D5D3F" transform="translate(651.000000, 393.000000) scale(-1, 1) translate(-651.000000, -393.000000) "></path>
        <path d="M360.280254,451 C389.813901,451 399.560132,442.127215 388.680352,400.11491 C377.800571,358.102605 368.111058,335 338.577411,335 C309.043765,335 300.79555,364.49654 306.870909,400.11491 C312.946267,435.733281 330.746608,451 360.280254,451 Z" id="leftear" fill="#9D5D3F"></path>
    </g>
</svg>