<?xml version="1.0" encoding="UTF-8"?>
<svg width="1000px" height="1000px" viewBox="0 0 1000 1000" version="1.1" xmlns="http://www.w3.org/2000/svg" xmlns:xlink="http://www.w3.org/1999/xlink">
    <!-- Generator: Sketch 54.1 (76490) - https://sketchapp.com -->
    <title>11-glasses/2</title>
    <desc>Created with Sketch.</desc>
    <defs>
        <linearGradient x1="50%" y1="100%" x2="50%" y2="3.061617e-15%" id="linearGradient-1">
            <stop stop-color="#2B2B2B" stop-opacity="0.8" offset="0%"></stop>
            <stop stop-color="#2B2B2B" offset="100%"></stop>
        </linearGradient>
    </defs>
    <g id="11-glasses/2" stroke="none" stroke-width="1" fill="none" fill-rule="evenodd">
        <path d="M654.250081,318.685655 C658.66672,319.704533 661.89435,323.496568 662.194473,328.01926 C663.10295,341.709433 662.702696,355.219563 660.99371,368.549648 C659.528221,379.980468 657.500992,390.608325 654.912026,400.433217 C653.077235,407.396082 647.732636,412.891129 640.823375,414.918458 C627.265544,418.89662 613.817803,420.885701 600.48015,420.885701 C586.645446,420.885701 572.080079,418.206606 556.78405,412.848416 C549.442346,410.276622 543.344186,405.024603 539.712241,398.145379 C535.256421,389.705667 531.814654,379.840423 529.386938,368.549648 C527.011862,357.503687 525.475744,345.466462 524.778584,332.437972 C524.178302,321.219926 532.695875,311.598099 543.903898,310.833172 C564.446137,309.431202 582.577998,309.247736 598.299481,310.282773 C616.515108,311.482015 635.165308,314.282975 654.250081,318.685655 Z M345.747368,318.685655 C364.83214,314.282975 383.48234,311.482015 401.697968,310.282773 C417.41945,309.247736 435.551311,309.431202 456.093551,310.833172 C467.301573,311.598099 475.819146,321.219926 475.218865,332.437972 C474.521705,345.466462 472.985587,357.503687 470.61051,368.549648 C468.182795,379.840423 464.741027,389.705667 460.285208,398.145379 C456.653263,405.024603 450.555103,410.276622 443.213398,412.848416 C427.91737,418.206606 413.352003,420.885701 399.517299,420.885701 C386.179646,420.885701 372.731904,418.89662 359.174074,414.918458 C352.264813,412.891129 346.920214,407.396082 345.085423,400.433217 C342.496456,390.608325 340.469228,379.980468 339.003738,368.549648 C337.294753,355.219563 336.894499,341.709433 337.802975,328.01926 C338.103098,323.496568 341.330729,319.704533 345.747368,318.685655 Z" id="glass" fill="url(#linearGradient-1)"></path>
        <path d="M500.29081,300 C553.402278,300 605.355895,302.894628 656.151661,308.683884 C665.767355,309.779796 673.218758,317.603445 673.844984,327.261107 C674.654566,339.746425 674.447331,352.231742 673.22328,364.71706 C671.981029,377.38802 669.6915,390.058981 666.354691,402.729941 C663.586842,413.240374 655.350692,421.431745 644.825326,424.142254 C631.125846,427.670164 616.720784,429.434119 601.610141,429.434119 C580.21461,429.434119 562.355531,425.897668 548.032903,418.824765 C537.423549,411.57504 530.350646,400.788863 526.814195,386.466235 C521.509518,364.982294 518.857179,343.498352 500.29081,343.498352 L500.037612,343.498352 C481.471242,343.498352 478.818904,364.982294 473.514227,386.466235 C469.977775,400.788863 462.904873,411.57504 452.295519,418.824765 C437.972891,425.897668 420.113811,429.434119 398.718281,429.434119 C383.607637,429.434119 369.202575,427.670164 355.503095,424.142254 C344.977729,421.431745 336.741579,413.240374 333.97373,402.729941 C330.636922,390.058981 328.347392,377.38802 327.105141,364.71706 C325.88109,352.231742 325.673856,339.746425 326.483437,327.261107 C327.109664,317.603445 334.561066,309.779796 344.17676,308.683884 C394.972526,302.894628 446.926143,300 500.037612,300 L500.29081,300 Z M347.4591,320.441306 C343.161548,321.432712 340.020946,325.122501 339.728915,329.523246 C338.844934,342.844287 339.234396,355.990139 340.897301,368.960801 C342.323277,380.083409 344.295844,390.424703 346.815004,399.984684 C348.600323,406.759807 353.800814,412.106689 360.523778,414.079354 C373.716045,417.950252 386.801191,419.885701 399.779216,419.885701 C413.240891,419.885701 427.413527,417.278843 442.297125,412.065128 C449.440872,409.562678 455.374606,404.45227 458.908622,397.758533 C463.244297,389.546383 466.593263,379.94714 468.95552,368.960801 C471.266557,358.212676 472.761256,346.500014 473.439618,333.822815 C474.023714,322.907245 465.735803,313.544854 454.829986,312.800552 C434.841633,311.436384 417.198667,311.257864 401.901087,312.264993 C384.176613,313.4319 366.029285,316.157337 347.4591,320.441306 Z M652.758296,320.441306 C634.188112,316.157337 616.040783,313.4319 598.316309,312.264993 C583.018729,311.257864 565.375763,311.436384 545.38741,312.800552 C534.481593,313.544854 526.193682,322.907245 526.777779,333.822815 C527.45614,346.500014 528.950839,358.212676 531.261876,368.960801 C533.624133,379.94714 536.973099,389.546383 541.308774,397.758533 C544.84279,404.45227 550.776524,409.562678 557.920272,412.065128 C572.803869,417.278843 586.976505,419.885701 600.43818,419.885701 C613.416205,419.885701 626.501352,417.950252 639.693618,414.079354 C646.416583,412.106689 651.617074,406.759807 653.402393,399.984684 C655.921552,390.424703 657.89412,380.083409 659.320095,368.960801 C660.983,355.990139 661.372462,342.844287 660.488481,329.523246 C660.19645,325.122501 657.055848,321.432712 652.758296,320.441306 Z" id="glasses" fill="#452816"></path>
        <path d="M546.273269,300.732481 C579.164943,301.787101 611.601086,303.980547 643.581699,307.312818 C642.692697,310.94372 641.403141,314.417406 639.762534,317.684376 C625.699353,314.964691 611.883945,313.158231 598.316309,312.264993 C583.952091,311.319313 567.519956,311.419013 549.019904,312.564095 C547.642111,308.812338 546.705599,304.847499 546.273269,300.732481 Z M674.01502,330.166431 C674.616299,341.683307 674.352386,353.200183 673.22328,364.71706 C671.981029,377.38802 669.6915,390.058981 666.354691,402.729941 C664.756648,408.798238 661.33578,414.09349 656.703932,418.007179 C653.326799,415.71086 649.989173,413.129598 646.764731,410.337071 C649.959525,407.709714 652.314734,404.112247 653.402393,399.984684 C655.921552,390.424703 657.89412,380.083409 659.320095,368.960801 C660.92207,356.465397 661.342212,343.807406 660.580522,330.986829 C665.096231,330.557586 669.632111,330.307428 674.01502,330.166431 Z M579.951793,428.069103 C567.857716,426.442104 557.218086,423.360658 548.032903,418.824765 C539.429217,412.94558 533.15126,404.740668 529.199029,394.210028 C532.177276,393.144688 535.32731,392.440541 538.59636,392.150359 C539.452958,394.086581 540.357097,395.955972 541.308774,397.758533 C544.84279,404.45227 550.776524,409.562678 557.920272,412.065128 C564.738414,414.453519 571.407358,416.294852 577.927105,417.589126 C579.070281,420.898973 579.768965,424.416089 579.951793,428.069103 Z M450.45111,419.706985 C436.449212,426.191741 419.204935,429.434119 398.718281,429.434119 C391.254607,429.434119 383.963076,429.003764 376.843686,428.143054 C376.72132,424.922549 376.546075,421.432084 376.388703,417.810561 C384.223824,419.193988 392.020662,419.885701 399.779216,419.885701 C413.240891,419.885701 427.413527,417.278843 442.297125,412.065128 C443.307373,411.711239 444.293422,411.305194 445.251908,410.84989 C447.24472,413.854715 448.999547,416.831257 450.45111,419.706985 Z M331.158314,390.879355 C329.311176,382.15859 327.960118,373.437825 327.105141,364.71706 C325.88109,352.231742 325.673856,339.746425 326.483437,327.261107 C326.514755,326.778121 326.563143,326.299721 326.628019,325.826521 C328.998333,325.285655 331.465807,325 334,325 C336.327043,325 338.594772,325.219606 340.780398,325.676789 C340.18746,326.849835 339.819908,328.152029 339.728915,329.523246 C338.844934,342.844287 339.234396,355.990139 340.897301,368.960801 C341.974832,377.365538 343.364465,385.324146 345.066202,392.836625 C341.614182,391.848196 337.889962,391 334,391 C333.042704,391 332.094928,390.959238 331.158314,390.879355 Z M407.874077,302.981118 C430.558401,301.49439 453.465161,300.563752 476.594357,300.189204 C472.651855,306.368047 469.616646,312.308547 466.522829,317.601008 C463.358165,314.870682 459.315503,313.106681 454.829986,312.800552 C438.068855,311.656636 422.9569,311.346417 409.494121,311.869897 C408.798567,308.98237 408.265409,305.995176 407.874077,302.981118 Z" id="pattern" fill="#29150C"></path>
    </g>
</svg>