<?xml version="1.0" encoding="UTF-8"?>
<svg width="1000px" height="1000px" viewBox="0 0 1000 1000" version="1.1" xmlns="http://www.w3.org/2000/svg" xmlns:xlink="http://www.w3.org/1999/xlink">
    <!-- Generator: Sketch 54.1 (76490) - https://sketchapp.com -->
    <title>11-glasses/3</title>
    <desc>Created with Sketch.</desc>
    <defs>
        <linearGradient x1="50%" y1="0%" x2="50%" y2="100%" id="linearGradient-1">
            <stop stop-color="#FFFFFF" stop-opacity="0" offset="0%"></stop>
            <stop stop-color="#FFFFFF" stop-opacity="0.3" offset="100%"></stop>
        </linearGradient>
    </defs>
    <g id="11-glasses/3" stroke="none" stroke-width="1" fill="none" fill-rule="evenodd">
        <path d="M453.387759,322.135814 C465.106856,329.437355 470.975793,340.539956 470.975793,357.440528 C470.975793,393.556503 442.660994,421.849994 406.616261,421.849994 C370.639995,421.849994 341.475468,392.516684 341.475468,356.332212 C341.475468,323.95751 364.252484,309.492688 406.399925,310.066435 C428.277077,312.107823 443.018689,315.675402 453.387759,322.135814 Z M546.61224,322.135814 C556.981311,315.675402 571.722923,312.107823 593.600075,310.066435 C635.747516,309.492688 658.524531,323.95751 658.524531,356.332212 C658.524531,392.516684 629.360005,421.849994 593.383739,421.849994 C557.339006,421.849994 529.024206,393.556503 529.024206,357.440528 C529.024206,340.539956 534.893143,329.437355 546.61224,322.135814 Z" id="glass" fill="url(#linearGradient-1)"></path>
        <path d="M508.93282,331.943632 C505.80759,331.487904 502.99665,331.26004 500.5,331.26004 C497.655127,331.26004 494.440914,331.553495 490.85736,332.140406 L490.85736,332.140409 C483.253836,333.385704 478.085622,340.540779 479.293113,348.150399 C479.846472,351.637674 480.054853,354.701768 479.918254,357.342682 C477.865965,397.020234 444.078611,425.967072 404.487607,425.967072 C364.95191,425.967072 340.085687,395.859584 335.5215,356.26004 C334.527254,347.633819 335.5215,331.871369 320,331.871369 L320,319.832306 C332.75237,319.832306 374.034388,301.747562 407.164484,303.069049 L407.318921,303.071286 L407.472721,303.085564 C430.058069,305.182182 444.483411,310.0348 456.983834,316.054974 C462.380329,318.653913 472.034047,325.699635 475.199537,324.171498 C482.365027,321.643362 491.209532,320.26004 500.5,320.26004 C509.82947,320.26004 518.712986,321.655399 525.896888,324.205574 C529.08079,325.75575 537.767026,318.582948 543.016166,316.054974 C555.516589,310.0348 569.941931,305.182182 592.527279,303.085564 L592.681079,303.071286 L592.835516,303.069049 C625.965612,301.747562 667.24763,319.832306 680,319.832306 L680,331.871369 C664.4785,331.871369 665.472746,347.633819 664.4785,356.26004 C659.914313,395.859584 635.04809,425.967072 595.512393,425.967072 C555.921389,425.967072 522.134035,397.020234 520.081746,357.342682 C519.943226,354.664625 520.159924,351.563743 520.73184,348.040034 L520.731837,348.040034 C521.970568,340.407922 516.787709,333.216683 509.155597,331.977951 C509.081431,331.965914 509.00717,331.954474 508.93282,331.943632 Z M452.795204,322.855835 C442.666342,316.545085 428.266234,313.060153 406.895888,311.066055 C365.724832,310.505599 343.475468,324.63533 343.475468,356.26004 C343.475468,391.606264 371.96437,420.26004 407.107212,420.26004 C442.316934,420.26004 469.975794,392.621995 469.975794,357.342682 C469.975794,340.833627 464.242816,329.988229 452.795204,322.855835 Z M547.204796,322.855835 C535.757184,329.988229 530.024206,340.833627 530.024206,357.342682 C530.024206,392.621995 557.683066,420.26004 592.892788,420.26004 C628.03563,420.26004 656.524532,391.606264 656.524532,356.26004 C656.524532,324.63533 634.275168,310.505599 593.104112,311.066055 C571.733766,313.060153 557.333658,316.545085 547.204796,322.855835 Z" id="glasses" fill="#437C9A" fill-rule="nonzero"></path>
        <path d="M492.800925,331.845826 C494.463977,328.862329 496.181933,325.833631 497.949328,322.772413 C498.434206,321.93258 498.918825,321.097192 499.403015,320.26648 C499.767933,320.262192 500.133619,320.26004 500.5,320.26004 C507.402296,320.26004 514.060494,321.023804 519.966915,322.453922 C518.175203,325.677837 516.318519,328.956041 514.403811,332.272413 C514.160434,332.693954 513.917123,333.114375 513.673898,333.533646 C512.30547,332.779138 510.786451,332.242647 509.155597,331.977951 C509.081431,331.965914 509.00717,331.954474 508.93282,331.943632 C505.80759,331.487904 502.99665,331.26004 500.5,331.26004 C498.179397,331.26004 495.613039,331.455302 492.800925,331.845826 Z M479.956257,356.140466 C479.951168,356.550502 479.938501,356.95124 479.918254,357.342682 C479.135066,372.484295 473.730262,386.063181 465.144987,397.066973 C463.394933,393.464484 469.32292,377.522659 479.956257,356.140466 Z M340.516926,378.33622 C338.097214,371.447683 336.417851,364.036907 335.5215,356.26004 C335.197263,353.44691 335.084502,349.87484 334.541449,346.338009 C339.836327,335.629587 346.085381,323.908532 353.053624,311.747016 C363.57712,308.831037 375.364854,305.862008 387.044003,304.243021 C385.513367,307.088171 383.933339,309.975265 382.307354,312.895944 C356.941722,317.642391 343.475468,331.656866 343.475468,356.26004 C343.475468,361.616664 344.129761,366.819585 345.362349,371.792366 C343.701738,374.09218 342.084105,376.276692 340.516926,378.33622 Z M416.468461,304.120032 C426.206036,305.471281 434.287398,307.398313 441.387753,309.729113 C439.910987,311.952045 438.438296,314.088808 436.979452,316.128671 C430.317627,314.219708 422.481776,312.795404 413.201473,311.721993 C414.184988,309.280961 415.276196,306.740031 416.468461,304.120032 Z M646.743181,311.690749 C651.089566,312.893505 655.222464,314.088774 659.045601,315.17816 C658.020898,320.393483 655.711584,327.40639 652.335711,335.632981 C649.348745,329.39616 644.784978,324.395706 638.710917,320.575561 C641.605775,317.065857 644.306588,314.0759 646.743181,311.690749 Z M598.823763,425.895629 C597.731736,425.943103 596.627904,425.967072 595.512393,425.967072 C590.518666,425.967072 585.617272,425.506542 580.860248,424.622037 C581.327786,422.998612 581.876385,421.2676 582.502292,419.439048 C585.875458,419.979562 589.345809,420.26004 592.892788,420.26004 C596.731712,420.26004 600.491235,419.918118 604.142895,419.262901 C602.30728,421.651728 600.52921,423.868729 598.823763,425.895629 Z M566.654728,420.570624 C565.988406,420.310307 565.326619,420.041147 564.669546,419.763271 C565.226309,419.599834 565.688129,419.616455 566.047059,419.823684 C566.309847,419.975405 566.511728,420.225975 566.654728,420.570624 Z M539.775025,402.735413 C530.720731,393.337882 524.222712,381.52857 521.460259,368.135902 C524.255004,363.528512 527.147552,359.22278 530.054421,355.296482 C530.034278,355.968694 530.024206,356.650713 530.024206,357.342682 C530.024206,372.483717 535.118749,386.217292 543.71828,396.962644 C542.415141,398.95818 541.09808,400.884901 539.775027,402.735416 Z" id="pattern" fill="#7BAFCB" fill-rule="nonzero"></path>
    </g>
</svg>