<?xml version="1.0" encoding="UTF-8"?>
<svg width="1000px" height="1000px" viewBox="0 0 1000 1000" version="1.1" xmlns="http://www.w3.org/2000/svg" xmlns:xlink="http://www.w3.org/1999/xlink">
    <!-- Generator: Sketch 54.1 (76490) - https://sketchapp.com -->
    <title>11-glasses/4</title>
    <desc>Created with Sketch.</desc>
    <defs>
        <linearGradient x1="50%" y1="0%" x2="50%" y2="100%" id="linearGradient-1">
            <stop stop-color="#FFFFFF" stop-opacity="0" offset="0%"></stop>
            <stop stop-color="#FFFFFF" stop-opacity="0.3" offset="100%"></stop>
        </linearGradient>
    </defs>
    <g id="11-glasses/4" stroke="none" stroke-width="1" fill="none" fill-rule="evenodd">
        <path d="M453.387759,322.135814 C465.106856,329.437355 470.975793,340.539956 470.975793,357.440528 C470.975793,393.556503 442.660994,421.849994 406.616261,421.849994 C370.639995,421.849994 341.475468,392.516684 341.475468,356.332212 C341.475468,323.95751 364.252484,309.492688 406.399925,310.066435 C428.277077,312.107823 443.018689,315.675402 453.387759,322.135814 Z M546.61224,322.135814 C556.981311,315.675402 571.722923,312.107823 593.600075,310.066435 C635.747516,309.492688 658.524531,323.95751 658.524531,356.332212 C658.524531,392.516684 629.360005,421.849994 593.383739,421.849994 C557.339006,421.849994 529.024206,393.556503 529.024206,357.440528 C529.024206,340.539956 534.893143,329.437355 546.61224,322.135814 Z" id="glass" fill="url(#linearGradient-1)"></path>
        <path d="M508.93282,331.943632 C505.80759,331.487904 502.99665,331.26004 500.5,331.26004 C497.655127,331.26004 494.440914,331.553495 490.85736,332.140406 L490.85736,332.140409 C483.253836,333.385704 478.085622,340.540779 479.293113,348.150399 C479.846472,351.637674 480.054853,354.701768 479.918254,357.342682 C477.865965,397.020234 444.078611,425.967072 404.487607,425.967072 C364.95191,425.967072 340.085687,395.859584 335.5215,356.26004 C334.527254,347.633819 335.5215,331.871369 320,331.871369 L320,319.832306 C332.75237,319.832306 374.034388,301.747562 407.164484,303.069049 L407.318921,303.071286 L407.472721,303.085564 C430.058069,305.182182 444.483411,310.0348 456.983834,316.054974 C462.380329,318.653913 472.034047,325.699635 475.199537,324.171498 C482.365027,321.643362 491.209532,320.26004 500.5,320.26004 C509.82947,320.26004 518.712986,321.655399 525.896888,324.205574 C529.08079,325.75575 537.767026,318.582948 543.016166,316.054974 C555.516589,310.0348 569.941931,305.182182 592.527279,303.085564 L592.681079,303.071286 L592.835516,303.069049 C625.965612,301.747562 667.24763,319.832306 680,319.832306 L680,331.871369 C664.4785,331.871369 665.472746,347.633819 664.4785,356.26004 C659.914313,395.859584 635.04809,425.967072 595.512393,425.967072 C555.921389,425.967072 522.134035,397.020234 520.081746,357.342682 C519.943226,354.664625 520.159924,351.563743 520.73184,348.040034 L520.731837,348.040034 C521.970568,340.407922 516.787709,333.216683 509.155597,331.977951 C509.081431,331.965914 509.00717,331.954474 508.93282,331.943632 Z M452.795204,322.855835 C442.666342,316.545085 428.266234,313.060153 406.895888,311.066055 C365.724832,310.505599 343.475468,324.63533 343.475468,356.26004 C343.475468,391.606264 371.96437,420.26004 407.107212,420.26004 C442.316934,420.26004 469.975794,392.621995 469.975794,357.342682 C469.975794,340.833627 464.242816,329.988229 452.795204,322.855835 Z M547.204796,322.855835 C535.757184,329.988229 530.024206,340.833627 530.024206,357.342682 C530.024206,392.621995 557.683066,420.26004 592.892788,420.26004 C628.03563,420.26004 656.524532,391.606264 656.524532,356.26004 C656.524532,324.63533 634.275168,310.505599 593.104112,311.066055 C571.733766,313.060153 557.333658,316.545085 547.204796,322.855835 Z" id="glasses" fill="#4B1C15" fill-rule="nonzero"></path>
        <path d="M500.137154,331.261614 C497.897283,331.280941 495.433405,331.47825 492.74552,331.853541 C490.693038,328.601476 488.525528,325.097715 486.276237,321.392126 C488.890163,320.959956 491.608847,320.647473 494.39605,320.461686 C496.46811,324.277173 498.391441,327.896626 500.137154,331.261614 Z M484.063301,335.277801 C480.462689,338.337388 478.498951,343.145584 479.293113,348.150399 C479.846472,351.637674 480.054853,354.701768 479.918254,357.342682 C479.898983,357.715245 479.876914,358.086863 479.852069,358.457519 C471.042825,340.721478 465.488552,326.756682 464.894303,320.520186 C469.117527,322.945416 473.311999,325.082705 475.199537,324.171498 C475.207345,324.168744 475.215155,324.16599 475.222967,324.163238 C477.809853,327.092576 480.790861,330.843372 484.063301,335.277801 Z M446.859115,413.688065 C439.645984,418.316907 431.569717,421.768647 422.955754,423.814674 C422.076173,422.160256 421.227712,420.521558 420.411709,418.902785 C429.016501,417.112151 436.92625,413.609454 443.781425,408.752234 C444.808996,410.359878 445.835987,412.006356 446.859115,413.688065 Z M394.737136,425.328456 C374.646632,422.633152 359.021279,411.57897 348.762519,395.46523 C347.051997,392.393824 345.392231,389.35944 343.78721,386.371791 C339.572171,377.340268 336.777782,367.159719 335.5215,356.26004 C334.527254,347.633819 335.5215,331.871369 320,331.871369 L320,319.832306 C321.471744,319.832306 323.323484,319.591429 325.498835,319.167306 C330.579727,323.813068 337.369353,331.972999 345.104842,342.659077 C344.022877,346.769521 343.475468,351.299564 343.475468,356.26004 C343.475468,386.043656 363.703075,411.07552 391.094906,418.216647 C392.34973,420.626828 393.564567,422.999282 394.737136,425.328456 Z M508.478609,320.606668 C514.842129,321.167119 520.797669,322.395429 525.896888,324.205574 C529.008502,325.720555 537.375435,318.904156 542.653424,316.234187 C544.108204,318.407951 545.548473,320.669042 546.963369,323.007342 C535.676579,330.141534 530.024206,340.950095 530.024206,357.342682 C530.024206,358.071058 530.035996,358.796177 530.059399,359.517863 C526.961291,355.333744 523.879396,350.718579 520.914781,345.766516 C520.910087,340.933394 518.39621,336.513762 514.441046,333.989331 C512.130544,329.382495 510.134767,324.885581 508.478609,320.606668 Z M585.672318,303.835727 C587.872071,303.556485 590.154649,303.305817 592.527279,303.085564 L592.681079,303.071286 L592.835516,303.069049 C598.480103,302.843899 604.361325,303.182075 610.297766,303.898158 C612.259674,306.665239 614.263596,309.587352 616.294005,312.645672 C609.401401,311.467709 601.661477,310.949565 593.104112,311.066055 C591.675169,311.199392 590.27739,311.339394 588.909968,311.486461 C587.736428,308.833327 586.655212,306.277727 585.672318,303.835727 Z M655.594653,387.667139 C652.954301,393.079566 649.792979,398.061335 646.136926,402.516407 C644.681784,401.058651 643.137633,399.395008 641.518654,397.54267 C646.07874,392.114618 649.756647,385.912638 652.329905,379.160491 C653.564148,382.167611 654.655945,385.012662 655.594653,387.667139 Z M416.00225,312.062291 C415.971169,310.751745 416.238488,309.884523 416.834591,309.540363 C417.972641,308.883309 420.16257,310.217315 423.029559,313.081848 C420.788383,312.713209 418.447762,312.374255 416.00225,312.062291 Z" id="pattern" fill="#8E543A" fill-rule="nonzero"></path>
    </g>
</svg>