<?xml version="1.0" encoding="UTF-8"?>
<svg width="1000px" height="1000px" viewBox="0 0 1000 1000" version="1.1" xmlns="http://www.w3.org/2000/svg" xmlns:xlink="http://www.w3.org/1999/xlink">
    <!-- Generator: Sketch 54.1 (76490) - https://sketchapp.com -->
    <title>11-glasses/5</title>
    <desc>Created with Sketch.</desc>
    <defs>
        <linearGradient x1="50%" y1="0%" x2="50%" y2="100%" id="linearGradient-1">
            <stop stop-color="#FFFFFF" stop-opacity="0" offset="0%"></stop>
            <stop stop-color="#FFFFFF" stop-opacity="0.3" offset="100%"></stop>
        </linearGradient>
    </defs>
    <g id="11-glasses/5" stroke="none" stroke-width="1" fill="none" fill-rule="evenodd">
        <path d="M406.021429,430.165785 C364.051828,430.165785 333.5,397.808145 333.5,356.622927 C333.5,317.933142 355.318289,302.119327 405.990475,303.143248 C450.246055,304.263993 476.5,322.426661 476.5,357.644356 C476.5,397.645003 446.116501,430.165785 406.021429,430.165785 Z M593.978571,430.165785 C553.883499,430.165785 523.5,397.645003 523.5,357.644356 C523.5,322.426661 549.753945,304.263993 594.009525,303.143248 C644.681711,302.119327 666.5,317.933142 666.5,356.622927 C666.5,397.808145 635.948172,430.165785 593.978571,430.165785 Z" id="glass" fill="url(#linearGradient-1)"></path>
        <path d="M406.5,431.5 C363.714282,431.5 332.5,398.44075 332.5,356.5 C332.5,316.711082 355.404753,300.109802 406.537974,301.143059 C451.309915,302.27686 478.5,321.087157 478.5,357.5 C478.5,398.274465 447.458065,431.5 406.5,431.5 Z M406.5,428.5 C445.753917,428.5 475.5,396.661473 475.5,357.5 C475.5,323.021138 449.796837,305.239505 406.469696,304.142272 C356.860562,303.139832 335.5,318.621888 335.5,356.5 C335.5,396.821192 365.41088,428.5 406.5,428.5 Z M593.5,431.5 C552.541935,431.5 521.5,398.274465 521.5,357.5 C521.5,321.087157 548.690085,302.27686 593.462026,301.143059 C644.595247,300.109802 667.5,316.711082 667.5,356.5 C667.5,398.44075 636.285718,431.5 593.5,431.5 Z M593.5,428.5 C634.58912,428.5 664.5,396.821192 664.5,356.5 C664.5,318.621888 643.139438,303.139832 593.530304,304.142272 C550.203163,305.239505 524.5,323.021138 524.5,357.5 C524.5,396.661473 554.246083,428.5 593.5,428.5 Z" id="glasses" fill="#3D2D23" fill-rule="nonzero"></path>
        <path d="M527,341.247386 L525.037851,348.527453 C518.566581,345.02599 509.885048,343.041613 500.506836,343.041613 C490.700654,343.041613 481.666273,345.212145 475.132067,349 L473,341.815131 C480.570792,337.42637 489.670048,335 500.506836,335 C510.859256,335 519.545852,337.214109 527,341.247386 Z M337.252373,342.079771 L336.5,349.039221 L318,347.039221 L318.752373,340.079771 L337.252373,342.079771 Z M663,342 L681.5,340 L682.252373,346.959449 L663.752373,348.959449 L663,342 Z" id="golden" fill="#F1BC69" fill-rule="nonzero"></path>
        <path d="M520.777955,346.563701 C520.092911,346.29613 519.391219,346.042701 518.674121,345.803799 L522.94513,339.288083 C523.087606,339.349036 523.229658,339.410602 523.371286,339.47278 L520.777955,346.563701 L520.777955,346.563701 Z M511.357176,343.96911 C510.556168,343.827454 509.743787,343.701476 508.921266,343.591555 L511.688665,335.951384 C511.891064,335.987642 512.092729,336.024911 512.293662,336.063187 L511.357176,343.96911 Z M501.774642,343.053742 C501.353558,343.04567 500.93091,343.041613 500.506836,343.041613 C500.078143,343.041613 499.650925,343.045761 499.225327,343.054011 L500.153962,335.000854 C500.271381,335.000287 500.389006,335 500.506836,335 C500.6201,335 500.733165,335.000265 500.846031,335.000795 L501.774642,343.053742 Z M492.079399,343.593391 C491.256647,343.703532 490.444141,343.829725 489.643116,343.971575 L488.706076,336.06098 C488.90689,336.022891 489.108441,335.9858 489.31073,335.949712 L492.079399,343.593391 L492.079399,343.593391 Z M482.328241,345.807403 C481.610727,346.04661 480.908785,346.30032 480.223666,346.568133 L477.626098,339.465628 C477.76705,339.403539 477.908468,339.342059 478.050354,339.281192 L482.328241,345.807403 L482.328241,345.807403 Z M318.172367,345.444823 L318.558825,341.870085 L333.911178,344.552604 L318.172367,345.444823 Z M681.738811,345.574737 L666,344.682518 L681.352353,342 L681.738811,345.574737 Z" id="pattern" fill="#BE8F44" fill-rule="nonzero"></path>
    </g>
</svg>