<?xml version="1.0" encoding="UTF-8"?>
<svg width="1000px" height="1000px" viewBox="0 0 1000 1000" version="1.1" xmlns="http://www.w3.org/2000/svg" xmlns:xlink="http://www.w3.org/1999/xlink">
    <!-- Generator: Sketch 54.1 (76490) - https://sketchapp.com -->
    <title>11-glasses/8</title>
    <desc>Created with Sketch.</desc>
    <defs>
        <linearGradient x1="50%" y1="0%" x2="50%" y2="100%" id="linearGradient-1">
            <stop stop-color="#FFFFFF" stop-opacity="0" offset="0%"></stop>
            <stop stop-color="#FFFFFF" stop-opacity="0.3" offset="100%"></stop>
        </linearGradient>
    </defs>
    <g id="11-glasses/8" stroke="none" stroke-width="1" fill="none" fill-rule="evenodd">
        <path d="M587.55102,413.122664 C551.596156,413.122664 522.44898,383.975487 522.44898,348.020623 C522.44898,318.440585 539.468112,309.301394 587.55102,307.002128 C635.633929,304.702861 652.653061,307.002128 652.653061,348.020623 C652.653061,383.975487 623.505885,413.122664 587.55102,413.122664 Z M412.44898,413.122664 C376.494115,413.122664 347.346939,383.975487 347.346939,348.020623 C347.346939,307.002128 364.366071,304.702861 412.44898,307.002128 C460.531888,309.301394 477.55102,318.440585 477.55102,348.020623 C477.55102,383.975487 448.403844,413.122664 412.44898,413.122664 Z" id="Shape" fill="url(#linearGradient-1)"></path>
        <path d="M412.44898,414.918582 C449.395702,414.918582 479.346939,384.967345 479.346939,348.020623 C479.346939,317.849991 462.566187,307.600702 412.53476,305.208259 C383.489873,303.819368 370.575196,304.643241 361.028971,309.678741 C350.060379,315.464518 345.55102,326.893089 345.55102,348.020623 C345.55102,384.967345 375.502257,414.918582 412.44898,414.918582 Z M522.203336,334.246102 L521.281752,333.877468 C514.163192,331.030044 507.075269,329.61246 500,329.61246 C492.924731,329.61246 485.836808,331.030044 478.718248,333.877468 L475.800179,335.044696 L473.465723,329.208557 L476.383793,328.041329 C484.23122,324.902358 492.109283,323.326745 500,323.326745 C507.890717,323.326745 515.76878,324.902358 523.616207,328.041329 L524.338634,328.330299 C531.614667,313.0554 550.430048,306.979237 587.46524,305.208259 C616.510127,303.819368 629.424804,304.643241 638.971029,309.678741 C649.939621,315.464518 654.44898,326.893089 654.44898,348.020623 C654.44898,384.967345 624.497743,414.918582 587.55102,414.918582 C550.604298,414.918582 520.653061,384.967345 520.653061,348.020623 C520.653061,342.868136 521.142475,338.296659 522.203336,334.246102 Z M412.44898,411.326745 C377.485974,411.326745 349.142857,382.983629 349.142857,348.020623 C349.142857,328.083593 353.16602,317.887243 362.704766,312.855689 C371.449692,308.242864 384.022687,307.440787 412.363199,308.795996 C460.728123,311.108749 475.755102,320.286875 475.755102,348.020623 C475.755102,382.983629 447.411986,411.326745 412.44898,411.326745 Z M587.55102,411.326745 C622.514026,411.326745 650.857143,382.983629 650.857143,348.020623 C650.857143,328.083593 646.83398,317.887243 637.295234,312.855689 C628.550308,308.242864 615.977313,307.440787 587.636801,308.795996 C539.271877,311.108749 524.244898,320.286875 524.244898,348.020623 C524.244898,382.983629 552.588014,411.326745 587.55102,411.326745 Z" id="glasses" fill="#E4C184" fill-rule="nonzero"></path>
        <path d="M481.142857,334.475836 L474.249795,339.40685 C473.374208,340.03321 471.097244,338.353238 470.766913,336.9989 C465.380519,314.914987 447.910218,312.305559 411.985405,310.58884 C384.154338,309.258893 371.829263,310.942581 363.679795,315.2384 C355.572996,319.511728 351.871357,328.185815 351.567216,345.611304 C351.566292,345.664294 351.563489,345.717235 351.558813,345.770026 C351.449536,347.003928 350.360675,347.915616 349.126774,347.806339 L338.934931,346.903696 C337.472342,346.774165 336.345066,345.558779 336.325765,344.090592 C336.21673,335.796394 335.115814,323.786763 324,321.237938 L324,310.58884 C355.140975,307.894963 377.762541,301.287185 412.414598,303.415416 C453.570475,305.943092 481.142857,311.486799 481.142857,334.475836 Z M518.857143,334.475836 C518.857143,311.486799 546.429525,305.943092 587.585402,303.415416 C622.237459,301.287185 644.859025,307.894963 676,310.58884 L676,321.237938 C664.884186,323.786763 663.78327,335.796394 663.674235,344.090592 C663.654934,345.558779 662.527658,346.774165 661.065069,346.903696 L650.873226,347.806339 C649.639325,347.915616 648.550464,347.003928 648.441187,345.770026 C648.436511,345.717235 648.433708,345.664294 648.432784,345.611304 C648.128643,328.185815 644.427004,319.511728 636.320205,315.2384 C628.170737,310.942581 615.845662,309.258893 588.014595,310.58884 C552.089782,312.305559 534.619481,314.914987 529.233087,336.9989 C528.902756,338.353238 526.625792,340.03321 525.750205,339.40685 C524.218413,338.31107 521.920726,336.667398 518.857143,334.475836 Z" id="Shape" fill="#000000" fill-rule="nonzero"></path>
        <path d="M477.229568,337.275243 L474.249795,339.40685 C473.374208,340.03321 471.097244,338.353238 470.766913,336.9989 C469.060457,330.002525 466.141167,324.96076 461.806474,321.282754 C461.707997,317.216983 461.79345,313.816715 462.070766,311.21907 C465.320375,312.444771 468.198061,313.855115 470.669766,315.485233 C472.72742,320.953231 474.972366,328.411176 477.229568,337.275243 Z M436.656477,312.471812 C432.847875,311.974701 428.696432,311.595899 424.183534,311.281116 C423.883815,308.809607 423.642004,306.441113 423.45853,304.204256 C427.469059,304.538179 431.318397,304.919216 434.990771,305.363649 C435.56258,307.614734 436.120787,309.992682 436.656477,312.471812 Z M361.377906,316.657488 C354.866335,321.334936 351.840929,329.929164 351.567216,345.611304 C351.566292,345.664294 351.563489,345.717235 351.558813,345.770026 C351.449536,347.003928 350.360675,347.915616 349.126774,347.806339 L343.588948,347.31588 C343.477854,346.696302 343.367363,346.074933 343.257496,345.451846 C340.978138,332.524967 339.20436,320.201135 337.961305,309.098929 C345.195599,308.199593 352.098022,307.178805 358.987868,306.233113 C359.794438,309.589462 360.592937,313.069959 361.377906,316.657488 Z M526.474853,317.622513 C528.004443,322.218474 529.383584,327.274109 530.54096,332.649632 C530.044588,334.00858 529.609354,335.456225 529.233087,336.9989 C528.902756,338.353238 526.625792,340.03321 525.750205,339.40685 C524.218413,338.31107 521.920726,336.667398 518.857143,334.475836 C518.857143,327.307827 521.537729,321.835853 526.474853,317.622513 Z M549.504951,307.895598 C552.316096,307.28227 555.292946,306.741653 558.423692,306.261566 C558.373189,309.110582 558.197052,311.485965 557.891293,313.311931 C555.998634,313.654837 554.205159,314.040986 552.507851,314.479181 C551.570419,312.8609 550.561273,310.639601 549.504951,307.895598 Z M613.562392,303.360777 C621.438655,303.808149 628.859229,304.63001 636.209947,305.588854 C636.577087,309.094448 636.872451,312.463823 637.095802,315.668624 C636.841889,315.52048 636.583368,315.377121 636.320205,315.2384 C631.523062,312.709688 625.27906,311.086087 615.277172,310.44949 C614.695499,308.155207 614.122922,305.789529 613.562392,303.360777 Z M580.273179,310.996067 C576.843392,311.197864 573.605429,311.42399 570.552271,311.694924 C571.313845,307.787884 572.509357,305.484464 574.14224,305.196542 C575.916197,304.883746 578.018674,306.982846 580.273179,310.996067 Z" id="pattern" fill="#4F506A" fill-rule="nonzero"></path>
    </g>
</svg>