<?xml version="1.0" encoding="UTF-8"?>
<svg width="1000px" height="1000px" viewBox="0 0 1000 1000" version="1.1" xmlns="http://www.w3.org/2000/svg" xmlns:xlink="http://www.w3.org/1999/xlink">
    <!-- Generator: Sketch 54.1 (76490) - https://sketchapp.com -->
    <title>11-glasses/9</title>
    <desc>Created with Sketch.</desc>
    <defs>
        <linearGradient x1="50%" y1="100%" x2="50%" y2="3.061617e-15%" id="linearGradient-1">
            <stop stop-color="#2B2B2B" stop-opacity="0.8" offset="0%"></stop>
            <stop stop-color="#2B2B2B" offset="100%"></stop>
        </linearGradient>
    </defs>
    <g id="11-glasses/9" stroke="none" stroke-width="1" fill="none" fill-rule="evenodd">
        <path d="M596.798291,425.513118 C619.361578,426.579517 642.593292,420.242329 654.504914,408.330707 C665.86131,396.974312 668.620812,381.901894 666.173912,357.272231 C663.898425,334.367943 662.179887,329.589934 650.848103,318.272224 C643.69194,311.12495 631.001875,307.67262 612.583291,306.630492 C606.622235,306.293214 601.763481,306.223209 591.618604,306.224533 C591.171137,306.224592 591.171137,306.224592 590.726499,306.224611 C562.452294,306.224611 547.105956,308.262433 537.051867,314.255502 C525.913313,320.895003 521.753699,332.908967 524.161841,353.771566 C529.224413,397.630439 555.138126,423.544152 596.798291,425.513118 Z M403.209711,425.513118 C444.869876,423.544152 470.783589,397.630439 475.846161,353.771566 C478.254303,332.908967 474.09469,320.895003 462.956135,314.255502 C452.902046,308.262433 437.555709,306.224611 409.281503,306.224611 C408.836865,306.224592 408.836865,306.224592 408.389399,306.224533 C398.244521,306.223209 393.385767,306.293214 387.424711,306.630492 C369.006127,307.67262 356.316062,311.12495 349.1599,318.272224 C337.828115,329.589934 336.109577,334.367943 333.83409,357.272231 C331.38719,381.901894 334.146692,396.974312 345.503088,408.330707 C357.41471,420.242329 380.646424,426.579517 403.209711,425.513118 Z" id="glass" fill="url(#linearGradient-1)"></path>
        <path d="M412.612139,306.72194 C411.232817,306.783873 410.064449,305.715918 410.002516,304.336596 C409.940583,302.957274 411.008538,301.788906 412.387861,301.726973 C442.120194,300.391963 471.852571,299.724457 501.584961,299.724457 C531.317351,299.724457 561.049727,300.391963 590.782061,301.726973 C592.161383,301.788906 593.229338,302.957274 593.167406,304.336596 C593.105473,305.715918 591.937105,306.783873 590.557782,306.72194 C560.900142,305.390284 531.242545,304.724457 501.584961,304.724457 C471.927377,304.724457 442.26978,305.390284 412.612139,306.72194 Z M323,351 C321.619288,351 320.5,349.880712 320.5,348.5 C320.5,347.119288 321.619288,346 323,346 L333,346 C334.380712,346 335.5,347.119288 335.5,348.5 C335.5,349.880712 334.380712,351 333,351 L323,351 Z M667,351 C665.619288,351 664.5,349.880712 664.5,348.5 C664.5,347.119288 665.619288,346 667,346 L677,346 C678.380712,346 679.5,347.119288 679.5,348.5 C679.5,349.880712 678.380712,351 677,351 L667,351 Z M481.49999,343 C481.49999,344.380712 480.380702,345.5 478.99999,345.5 C477.619278,345.5 476.49999,344.380712 476.49999,343 L476.49999,338.246443 C476.49999,329.210767 483.378998,321.660667 492.375667,320.821989 C494.68229,320.606963 497.22313,320.5 499.99999,320.5 C502.77685,320.5 505.317688,320.606963 507.624309,320.821987 C516.62098,321.660662 523.499991,329.210764 523.499991,338.246442 L523.49999,343 C523.49999,344.380712 522.380701,345.5 520.99999,345.5 C519.619278,345.5 518.49999,344.380711 518.49999,343 L518.499991,338.246441 C518.499991,331.792386 513.586412,326.399456 507.160218,325.800403 C505.015824,325.600501 502.62848,325.5 499.99999,325.5 C497.3715,325.5 494.984155,325.600501 492.839759,325.800404 C486.413567,326.39946 481.49999,331.792389 481.49999,338.246443 L481.49999,343 Z" id="Line" fill="#E2D9CD" fill-rule="nonzero"></path>
        <path d="M596.077071,428.014728 C553.270556,425.991582 526.349616,399.070641 521.174433,354.236183 C518.653185,332.39371 523.263892,319.076881 535.720509,311.651706 C546.401123,305.285175 561.918742,303.224609 590.32106,303.224609 C590.755964,303.22459 590.755964,303.22459 591.193991,303.224533 C601.201354,303.223227 606.010635,303.292518 611.946858,303.628392 C630.891766,304.7003 644.10825,308.295841 652.012388,316.190162 C663.880281,328.043314 665.860676,333.549359 668.171521,356.809548 C670.674526,382.003952 667.774383,397.844553 655.594506,410.024431 C643.009365,422.609571 619.189864,429.107098 596.077071,428.014728 Z M596.26591,424.019188 C618.357474,425.063292 641.103489,418.858593 652.766079,407.196004 C663.885049,396.077033 666.586859,381.31973 664.191116,357.204992 C661.963202,334.779557 660.280593,330.10144 649.185719,319.020346 C642.179168,312.022498 629.75441,308.642345 611.720898,307.622004 C605.884468,307.291777 601.127294,307.223237 591.194513,307.224533 C590.756401,307.22459 590.756401,307.22459 590.32106,307.224609 C562.637974,307.224609 547.612478,309.219827 537.768587,315.087601 C526.862903,321.588292 522.790252,333.351083 525.148049,353.777514 C530.104779,396.719443 555.476722,422.091386 596.26591,424.019188 Z M403.930932,428.014728 C380.818139,429.107098 356.998637,422.609571 344.413496,410.024431 C332.233619,397.844553 329.333476,382.003952 331.836481,356.809548 C334.147326,333.549359 336.127721,328.043314 347.995615,316.190162 C355.899752,308.295841 369.116236,304.7003 388.061144,303.628392 C393.997367,303.292518 398.806648,303.223227 408.814011,303.224533 C409.252038,303.22459 409.252038,303.22459 409.686943,303.224609 C438.08926,303.224609 453.606879,305.285175 464.287493,311.651706 C476.74411,319.076881 481.354817,332.39371 478.833569,354.236183 C473.658387,399.070641 446.737446,425.991582 403.930932,428.014728 Z M403.742092,424.019188 C444.53128,422.091386 469.903223,396.719443 474.859954,353.777514 C477.21775,333.351083 473.1451,321.588292 462.239415,315.087601 C452.395524,309.219827 437.370028,307.224609 409.686943,307.224609 C409.251601,307.22459 409.251601,307.22459 408.813489,307.224533 C398.880708,307.223237 394.123535,307.291777 388.287104,307.622004 C370.253592,308.642345 357.828834,312.022498 350.822284,319.020346 C339.727409,330.10144 338.0448,334.779557 335.816886,357.204992 C333.421143,381.31973 336.122953,396.077033 347.241923,407.196004 C358.904513,418.858593 381.650529,425.063292 403.742092,424.019188 Z" id="Shape" fill="#000000" fill-rule="nonzero"></path>
    </g>
</svg>