<?xml version="1.0" encoding="UTF-8"?>
<svg width="1000px" height="1000px" viewBox="0 0 1000 1000" version="1.1" xmlns="http://www.w3.org/2000/svg" xmlns:xlink="http://www.w3.org/1999/xlink">
    <!-- Generator: Sketch 54.1 (76490) - https://sketchapp.com -->
    <title>12-nose/1/3</title>
    <desc>Created with Sketch.</desc>
    <g id="12-nose/1/3" stroke="none" stroke-width="1" fill="none" fill-rule="evenodd">
        <path d="M500.5,352 C520.25,352 532.25,385.5 535.5,412 C536.498372,420.140575 537.00132,428.281149 537.008843,436.421724 L537.008871,436.421724 C537.015733,443.847059 531.001873,449.872045 523.576537,449.878907 C520.556459,449.881698 517.623393,448.867588 515.25,447 C511.503258,455.128526 501.876451,458.680663 493.747926,454.93392 C490.655668,453.508583 488.090894,451.145498 486.417625,448.180061 C486.197685,447.790188 485.975131,447.396841 485.75,447 C480.034916,451.64956 471.632711,450.785782 466.983151,445.070698 C465.048453,442.692631 463.991855,439.720772 463.991122,436.655114 C463.989112,428.436743 464.492087,420.218371 465.5,412 C468.75,385.5 480.75,352 500.5,352 Z" id="nose" fill="#9D5D3F"></path>
        <path d="M500.5,352 C482.245558,363 477.025848,393.40625 477.025848,449.988792 C473.256979,449.900704 469.548763,448.224263 466.983151,445.070698 C465.048453,442.692631 463.991855,439.720772 463.991122,436.655114 C463.989112,428.436743 464.492087,420.218371 465.5,412 C468.75,385.5 480.75,352 500.5,352 Z" id="shadownose" fill-opacity="0.05" fill="#000000"></path>
    </g>
</svg>