<?xml version="1.0" encoding="UTF-8"?>
<svg width="1000px" height="1000px" viewBox="0 0 1000 1000" version="1.1" xmlns="http://www.w3.org/2000/svg" xmlns:xlink="http://www.w3.org/1999/xlink">
    <!-- Generator: Sketch 54.1 (76490) - https://sketchapp.com -->
    <title>12-nose/2/3</title>
    <desc>Created with Sketch.</desc>
    <g id="12-nose/2/3" stroke="none" stroke-width="1" fill="none" fill-rule="evenodd">
        <path d="M520.284765,403.955371 C530.231327,407.863745 537,417.522038 537,428.5 L537,429 C537,438.941125 528.941125,447 519,447 L515.634195,447 C512.124366,451.859943 506.411832,455 500,455 C493.596157,455 487.893221,451.858471 484.39601,447 L481,447 C471.058875,447 463,438.941125 463,429 L463,428.5 C463,417.494862 469.802226,407.815935 479.789162,403.926451 C479.733381,387.702988 480.470325,373.727505 482,362 C482.885178,355.213634 484.044497,348.96354 485.477956,343.249718 C487.493808,335.214452 495.641849,330.334754 503.677115,332.350607 C509.072955,333.704292 513.276473,337.933057 514.597822,343.336906 C515.980773,348.992681 517.114832,355.213712 518,362 C519.562629,373.980159 520.324218,387.965283 520.284765,403.955371 Z" id="Rectangle-2" fill="#9D5D3F"></path>
        <path d="M504.022244,332.441549 C498.993815,333.839404 494.838735,337.8256 493.477956,343.249718 C492.044497,348.96354 490.885178,355.213634 490,362 C488.470325,373.727505 487.733381,387.702988 487.789162,403.926451 C477.802226,407.815935 471,417.494862 471,428.5 L471,429 C471,438.941125 479.058875,447 489,447 L492.39601,447 C495.145451,450.819638 499.258208,453.578067 504.003055,454.583048 C502.71049,454.856386 501.371237,455 500,455 C493.596157,455 487.893221,451.858471 484.39601,447 L481,447 C471.058875,447 463,438.941125 463,429 L463,428.5 C463,417.494862 469.802226,407.815935 479.789162,403.926451 C479.733381,387.702988 480.470325,373.727505 482,362 C482.885178,355.213634 484.044497,348.96354 485.477956,343.249718 C487.493808,335.214452 495.641849,330.334754 503.677115,332.350607 C503.792711,332.379607 503.90776,332.409927 504.022244,332.441549 Z" id="Path" fill-opacity="0.05" fill="#000000"></path>
    </g>
</svg>