<?xml version="1.0" encoding="UTF-8"?>
<svg width="1000px" height="1000px" viewBox="0 0 1000 1000" version="1.1" xmlns="http://www.w3.org/2000/svg" xmlns:xlink="http://www.w3.org/1999/xlink">
    <!-- Generator: Sketch 54.1 (76490) - https://sketchapp.com -->
    <title>12-nose/3/3</title>
    <desc>Created with Sketch.</desc>
    <g id="12-nose/3/3" stroke="none" stroke-width="1" fill="none" fill-rule="evenodd">
        <path d="M500.5,342 C520.25,342 522.25,375.5 525.5,402 C526.498372,410.140575 537.00132,418.281149 537.008843,426.421724 C537.015733,433.847059 531.001873,439.872045 523.576537,439.878907 C520.556459,439.881698 517.623393,438.867588 515.25,437 C511.503258,445.128526 501.876451,448.680663 493.747926,444.93392 C490.655668,443.508583 488.090894,441.145498 486.417625,438.180061 C486.197685,437.790188 485.975131,437.396841 485.75,437 C480.034916,441.64956 471.632711,440.785782 466.983151,435.070698 C465.048453,432.692631 463.991855,429.720772 463.991122,426.655114 C463.989112,418.436743 474.492087,410.218371 475.5,402 C478.75,375.5 480.75,342 500.5,342 Z" id="nose" fill="#9D5D3F"></path>
        <path d="M500.5,342 C482.245558,353 489.803711,384.211914 477.025848,439.988792 C473.256979,439.900704 469.548763,438.224263 466.983151,435.070698 C465.048453,432.692631 463.991855,429.720772 463.991122,426.655114 C463.989112,418.436743 474.492087,410.218371 475.5,402 C478.75,375.5 480.75,342 500.5,342 Z" id="shadownose" fill-opacity="0.05" fill="#000000"></path>
    </g>
</svg>