<?xml version="1.0" encoding="UTF-8"?>
<svg width="1000px" height="1000px" viewBox="0 0 1000 1000" version="1.1" xmlns="http://www.w3.org/2000/svg" xmlns:xlink="http://www.w3.org/1999/xlink">
    <!-- Generator: Sketch 54.1 (76490) - https://sketchapp.com -->
    <title>2-body/1/2</title>
    <desc>Created with Sketch.</desc>
    <g id="2-body/1/2" stroke="none" stroke-width="1" fill="none" fill-rule="evenodd">
        <path d="M380.559938,663.84987 C395.754258,755.700604 451.35674,771.140625 499,771.140625 C546.805429,771.140625 602.624356,755.595315 617.593812,662.90928 L820.854944,766.462586 C851.01204,781.826404 870,812.810117 870,846.655314 L870,1000 L130,1000 L130,846.655314 C130,812.810117 148.98796,781.826404 179.145056,766.462586 L380.559938,663.84987 L380.559938,663.84987 Z" id="Path" fill="#7FBE44"></path>
        <polygon id="leftsleeve" fill="#564943" points="130 848.035156 284 1000 130 1000"></polygon>
        <polygon id="rightsleeve" fill="#564943" transform="translate(793.000000, 923.982422) scale(-1, 1) translate(-793.000000, -923.982422) " points="716 848 870 999.964844 716 999.964844"></polygon>
        <path d="M353.87919,677.442629 L380.559938,663.84987 C395.754258,755.700604 451.35674,771.140625 499,771.140625 C546.805429,771.140625 602.624356,755.595315 617.593812,662.90928 L646.12081,677.442629 C632.047091,750.802598 586.737009,804 500,804 C413.262991,804 367.952909,750.802598 353.87919,677.442629 Z" id="collar" fill="#564943"></path>
        <path d="M378.882029,664.704696 L380.559938,663.84987 C380.607148,664.135257 380.654748,664.419907 380.702737,664.703821 L378.882029,664.704696 Z M382.621408,674.729734 C383.242358,677.619727 383.907004,680.425677 384.613491,683.149921 L356.079748,687.683286 C355.759797,686.343127 355.451024,684.995313 355.153363,683.640061 L382.621408,674.729734 Z M387.448938,692.967451 C388.343154,695.760873 389.285786,698.457789 390.27432,701.061368 L362.729788,710.025755 C362.27416,708.767917 361.830344,707.500976 361.398268,706.225159 L387.448938,692.967451 L387.448938,692.967451 Z M394.379662,710.798048 C395.591739,713.394082 396.855165,715.882644 398.166616,718.267924 L372.167043,731.531117 C371.583291,730.419259 371.011146,729.297481 370.450543,728.165992 L394.379659,710.798043 L394.379662,710.798048 Z M403.939715,727.678229 C405.506175,729.96895 407.12402,732.144264 408.788963,734.209574 L384.836576,751.629602 C384.139105,750.703484 383.452453,749.767234 382.776564,748.821031 L403.939711,727.678223 L403.939715,727.678229 Z M416.463258,742.66089 C418.398108,744.549698 420.380335,746.319937 422.404571,747.978377 L400.979305,769.424254 C400.180349,768.694873 399.391274,767.955462 398.612035,767.206166 L416.463258,742.66089 Z M431.775968,754.707623 C434.0567,756.135247 436.376067,757.447214 438.727551,758.65174 L420.384248,783.924674 C419.486032,783.38205 418.596993,782.829437 417.71709,782.26696 L431.775968,754.707623 L431.775968,754.707623 Z M449.12276,763.232624 C451.687521,764.193454 454.277531,765.047918 456.885135,765.805666 L442.307431,794.450058 C441.307626,794.079876 440.316589,793.699565 439.334286,793.309236 L449.12276,763.232624 L449.12276,763.232624 Z M467.534675,768.371715 C470.296424,768.909142 473.066099,769.355083 475.834945,769.720569 L465.716523,800.912888 C464.625522,800.704671 463.542928,800.486251 462.468711,800.257728 L467.534675,768.371715 Z M486.295965,770.742057 C489.164388,770.929615 492.019917,771.044937 494.852652,771.100508 L489.698807,803.742164 C488.55152,803.683835 487.411992,803.615693 486.280198,803.537824 L486.295965,770.742057 Z M505.139613,771.05152 C507.977277,770.967455 510.835344,770.820946 513.703966,770.599578 L513.719802,803.537824 C512.588008,803.615693 511.44848,803.683835 510.301193,803.742164 L505.139613,771.05152 L505.139613,771.05152 Z M524.078907,769.454997 C526.857739,769.050386 529.635375,768.562174 532.402965,767.979207 L537.531289,800.257728 C536.457072,800.486251 535.374478,800.704671 534.283477,800.912888 L524.078907,769.454997 L524.078907,769.454997 Z M542.85045,765.286106 C545.474062,764.477439 548.078017,763.568063 550.654445,762.548054 L560.665713,793.309237 C559.683411,793.699565 558.692374,794.079876 557.692569,794.450058 L542.85045,765.286106 Z M560.721995,757.89334 C563.095411,756.625247 565.434345,755.244685 567.731978,753.743058 L582.28291,782.26696 C581.403007,782.829437 580.513968,783.38205 579.615752,783.924674 L560.721995,757.893338 L560.721995,757.89334 Z M576.687348,747.069422 C578.737499,745.335513 580.74289,743.483894 582.697812,741.507369 L601.387965,767.206166 C600.608726,767.955462 599.819651,768.694873 599.020695,769.424254 L576.687348,747.069422 L576.687348,747.069422 Z M589.944632,733.288547 C591.636461,731.138734 593.278167,728.872566 594.865137,726.484229 L617.223436,748.821031 C616.547547,749.767234 615.860895,750.703484 615.163424,751.629602 L589.944632,733.288547 Z M600.26843,717.469593 C601.60533,714.99439 602.891108,712.409593 604.122154,709.710653 L629.549457,728.165992 C628.988854,729.297481 628.416709,730.419259 627.832957,731.531117 L600.26843,717.469593 L600.26843,717.469593 Z M607.944445,700.481663 C608.955797,697.785257 609.918238,694.989547 610.829017,692.091069 L638.601732,706.225159 C638.169656,707.500976 637.72584,708.767917 637.270212,710.025755 L607.944451,700.481648 L607.944445,700.481663 Z M613.4654,682.844701 C614.191649,680.025513 614.873217,677.119122 615.508061,674.122955 L644.84664,683.640046 C644.548976,684.995313 644.240203,686.343127 643.920252,687.683286 L613.4654,682.844701 L613.4654,682.844701 Z M617.297419,664.7029 C617.397926,664.10826 617.496728,663.510392 617.593812,662.90928 L621.117971,664.704696 L617.297426,664.702859 L617.297419,664.7029 Z" id="stripes" fill-opacity="0.2" fill="#000000"></path>
        <path d="M378.636945,664.829556 L380.92173,665.978911 C396.618581,755.939814 451.727246,771.140625 499,771.140625 C519.868081,771.140625 542.26314,768.178455 562.120784,757.130644 L562.140625,757.140625 L130,1000 L130,846.655314 C130,812.810117 148.98796,781.826404 179.145056,766.462586 L378.636945,664.829556 Z" id="Path" fill-opacity="0.05" fill="#000000"></path>
    </g>
</svg>