<?xml version="1.0" encoding="UTF-8"?>
<svg width="1000px" height="1000px" viewBox="0 0 1000 1000" version="1.1" xmlns="http://www.w3.org/2000/svg" xmlns:xlink="http://www.w3.org/1999/xlink">
    <!-- Generator: Sketch 54.1 (76490) - https://sketchapp.com -->
    <title>2-body/3/4</title>
    <desc>Created with Sketch.</desc>
    <g id="2-body/3/4" stroke="none" stroke-width="1" fill="none" fill-rule="evenodd">
        <path d="M391.968855,658.037489 L500,700 L607.251359,657.640219 L820.854944,766.462586 C851.01204,781.826404 870,812.810117 870,846.655314 L870,1000 L130,1000 L130,846.655314 C130,812.810117 148.98796,781.826404 179.145056,766.462586 L391.968855,658.037489 Z" id="Path" fill="#2A4180"></path>
        <polygon id="leftsleeve" fill="#324C91" points="130 848.035156 284 1000 130 1000"></polygon>
        <polygon id="rightsleeve" fill="#324C91" transform="translate(793.000000, 923.982422) scale(-1, 1) translate(-793.000000, -923.982422) " points="716 848 870 999.964844 716 999.964844"></polygon>
        <g id="button" transform="translate(492.000000, 716.000000)">
            <circle id="Oval" fill="#3D2E24" cx="8" cy="8" r="8"></circle>
            <path d="M9,7 L11,7 C11.5522847,7 12,7.44771525 12,8 C12,8.55228475 11.5522847,9 11,9 L9,9 L9,11 C9,11.5522847 8.55228475,12 8,12 C7.44771525,12 7,11.5522847 7,11 L7,9 L5,9 C4.44771525,9 4,8.55228475 4,8 C4,7.44771525 4.44771525,7 5,7 L7,7 L7,5 C7,4.44771525 7.44771525,4 8,4 C8.55228475,4 9,4.44771525 9,5 L9,7 Z" id="Rectangle-2" fill="#796057" transform="translate(8.000000, 8.000000) rotate(20.000000) translate(-8.000000, -8.000000) "></path>
        </g>
        <g id="button" transform="translate(492.000000, 806.000000)">
            <circle id="Oval-Copy" fill="#3D2E24" cx="8" cy="8" r="8"></circle>
            <path d="M9,7 L11,7 C11.5522847,7 12,7.44771525 12,8 C12,8.55228475 11.5522847,9 11,9 L9,9 L9,11 C9,11.5522847 8.55228475,12 8,12 C7.44771525,12 7,11.5522847 7,11 L7,9 L5,9 C4.44771525,9 4,8.55228475 4,8 C4,7.44771525 4.44771525,7 5,7 L7,7 L7,5 C7,4.44771525 7.44771525,4 8,4 C8.55228475,4 9,4.44771525 9,5 L9,7 Z" id="Rectangle-2-Copy" fill="#796057" transform="translate(8.000000, 8.000000) rotate(20.000000) translate(-8.000000, -8.000000) "></path>
        </g>
        <g id="button" transform="translate(492.000000, 896.000000)">
            <circle id="Oval-Copy-2" fill="#3D2E24" cx="8" cy="8" r="8"></circle>
            <path d="M9,7 L11,7 C11.5522847,7 12,7.44771525 12,8 C12,8.55228475 11.5522847,9 11,9 L9,9 L9,11 C9,11.5522847 8.55228475,12 8,12 C7.44771525,12 7,11.5522847 7,11 L7,9 L5,9 C4.44771525,9 4,8.55228475 4,8 C4,7.44771525 4.44771525,7 5,7 L7,7 L7,5 C7,4.44771525 7.44771525,4 8,4 C8.55228475,4 9,4.44771525 9,5 L9,7 Z" id="Rectangle-2-Copy-2" fill="#796057" transform="translate(8.000000, 8.000000) rotate(20.000000) translate(-8.000000, -8.000000) "></path>
        </g>
        <g id="button" transform="translate(492.000000, 976.000000)">
            <circle id="Oval-Copy-3" fill="#3D2E24" cx="8" cy="8" r="8"></circle>
            <path d="M9,7 L11,7 C11.5522847,7 12,7.44771525 12,8 C12,8.55228475 11.5522847,9 11,9 L9,9 L9,11 C9,11.5522847 8.55228475,12 8,12 C7.44771525,12 7,11.5522847 7,11 L7,9 L5,9 C4.44771525,9 4,8.55228475 4,8 C4,7.44771525 4.44771525,7 5,7 L7,7 L7,5 C7,4.44771525 7.44771525,4 8,4 C8.55228475,4 9,4.44771525 9,5 L9,7 Z" id="Rectangle-2-Copy-3" fill="#796057" transform="translate(8.000000, 8.000000) rotate(20.000000) translate(-8.000000, -8.000000) "></path>
        </g>
        <path d="M130,846.655314 C130,812.810117 148.98796,781.826404 179.145056,766.462586 L391.968855,658.037489 L500,700 L500.168501,699.933449 L597.550781,737.839844 L130,1000 L130,846.655314 Z" id="Path" fill-opacity="0.05" fill="#000000"></path>
        <polygon id="Path-4-Copy-2" fill-opacity="0.05" fill="#000000" points="500 700 616.96875 657.138672 653.939941 683.183105 549.498047 804.752441"></polygon>
        <polygon id="Path-4-Copy-3" fill-opacity="0.05" fill="#000000" transform="translate(422.969971, 730.945557) scale(-1, 1) translate(-422.969971, -730.945557) " points="346 700 462.96875 657.138672 499.939941 683.183105 395.498047 804.752441"></polygon>
        <rect id="Rectangle" fill-opacity="0.1" fill="#000000" x="511" y="700" width="4" height="300"></rect>
        <polygon id="Path-4" fill="#324C91" points="500 700 441.501953 785.752441 346.060059 681.183105 373.03125 647.138672"></polygon>
        <polygon id="Path-4-Copy" fill="#324C91" points="500 700 626.96875 647.138672 653.939941 681.183105 558.498047 785.752441"></polygon>
        <polygon id="Rectangle" fill="#1A1A1A" points="296 706.886719 324 692.695312 324 1000 296 1000"></polygon>
        <polygon id="Rectangle-Copy-2" fill="#1A1A1A" transform="translate(690.000000, 846.347656) scale(-1, 1) translate(-690.000000, -846.347656) " points="676 706.886719 704 692.695312 704 1000 676 1000"></polygon>
    </g>
</svg>