<?xml version="1.0" encoding="UTF-8"?>
<svg width="1000px" height="1000px" viewBox="0 0 1000 1000" version="1.1" xmlns="http://www.w3.org/2000/svg" xmlns:xlink="http://www.w3.org/1999/xlink">
    <!-- Generator: Sketch 54.1 (76490) - https://sketchapp.com -->
    <title>2-body/3/5</title>
    <desc>Created with Sketch.</desc>
    <g id="2-body/3/5" stroke="none" stroke-width="1" fill="none" fill-rule="evenodd">
        <path d="M391.968855,658.037489 L500,700 L607.251359,657.640219 L820.854944,766.462586 C851.01204,781.826404 870,812.810117 870,846.655314 L870,1000 L130,1000 L130,846.655314 C130,812.810117 148.98796,781.826404 179.145056,766.462586 L391.968855,658.037489 Z" id="Path" fill="#FFFFFF"></path>
        <polygon id="leftsleeve" fill="#FBFBFB" points="130 848.035156 284 1000 130 1000"></polygon>
        <polygon id="rightsleeve" fill="#FBFBFB" transform="translate(793.000000, 923.982422) scale(-1, 1) translate(-793.000000, -923.982422) " points="716 848 870 999.964844 716 999.964844"></polygon>
        <g id="button" transform="translate(492.000000, 806.000000)">
            <circle id="Oval-Copy" fill="#D5C2B4" cx="8" cy="8" r="8"></circle>
            <path d="M9,7 L11,7 C11.5522847,7 12,7.44771525 12,8 C12,8.55228475 11.5522847,9 11,9 L9,9 L9,11 C9,11.5522847 8.55228475,12 8,12 C7.44771525,12 7,11.5522847 7,11 L7,9 L5,9 C4.44771525,9 4,8.55228475 4,8 C4,7.44771525 4.44771525,7 5,7 L7,7 L7,5 C7,4.44771525 7.44771525,4 8,4 C8.55228475,4 9,4.44771525 9,5 L9,7 Z" id="Rectangle-2-Copy" fill="#796057" transform="translate(8.000000, 8.000000) rotate(20.000000) translate(-8.000000, -8.000000) "></path>
        </g>
        <g id="button" transform="translate(492.000000, 896.000000)">
            <circle id="Oval-Copy-2" fill="#D5C2B4" cx="8" cy="8" r="8"></circle>
            <path d="M9,7 L11,7 C11.5522847,7 12,7.44771525 12,8 C12,8.55228475 11.5522847,9 11,9 L9,9 L9,11 C9,11.5522847 8.55228475,12 8,12 C7.44771525,12 7,11.5522847 7,11 L7,9 L5,9 C4.44771525,9 4,8.55228475 4,8 C4,7.44771525 4.44771525,7 5,7 L7,7 L7,5 C7,4.44771525 7.44771525,4 8,4 C8.55228475,4 9,4.44771525 9,5 L9,7 Z" id="Rectangle-2-Copy-2" fill="#796057" transform="translate(8.000000, 8.000000) rotate(20.000000) translate(-8.000000, -8.000000) "></path>
        </g>
        <g id="button" transform="translate(492.000000, 976.000000)">
            <circle id="Oval-Copy-3" fill="#D5C2B4" cx="8" cy="8" r="8"></circle>
            <path d="M9,7 L11,7 C11.5522847,7 12,7.44771525 12,8 C12,8.55228475 11.5522847,9 11,9 L9,9 L9,11 C9,11.5522847 8.55228475,12 8,12 C7.44771525,12 7,11.5522847 7,11 L7,9 L5,9 C4.44771525,9 4,8.55228475 4,8 C4,7.44771525 4.44771525,7 5,7 L7,7 L7,5 C7,4.44771525 7.44771525,4 8,4 C8.55228475,4 9,4.44771525 9,5 L9,7 Z" id="Rectangle-2-Copy-3" fill="#796057" transform="translate(8.000000, 8.000000) rotate(20.000000) translate(-8.000000, -8.000000) "></path>
        </g>
        <path d="M296,706.886719 L324,692.695312 L324,1000 L296,1000 L296,706.886719 Z M704,706.886719 L704,1000 L676,1000 L676,692.695312 L704,706.886719 Z" id="Rectangle-3" fill="#AD7F61"></path>
        <path d="M130,846.655314 C130,812.810117 148.98796,781.826404 179.145056,766.462586 L391.968855,658.037489 L500,700 L500.168501,699.933449 L597.550781,737.839844 L130,1000 L130,846.655314 Z" id="Path" fill-opacity="0.05" fill="#000000"></path>
        <polygon id="Path-4-Copy-2" fill-opacity="0.05" fill="#000000" points="500 700 616.96875 657.138672 653.939941 683.183105 549.498047 804.752441"></polygon>
        <polygon id="Path-4-Copy-3" fill-opacity="0.05" fill="#000000" transform="translate(422.969971, 730.945557) scale(-1, 1) translate(-422.969971, -730.945557) " points="346 700 462.96875 657.138672 499.939941 683.183105 395.498047 804.752441"></polygon>
        <rect id="Rectangle" fill-opacity="0.1" fill="#000000" x="511" y="700" width="4" height="300"></rect>
        <polygon id="Path-4" fill="#FBFBFB" points="500 700 441.501953 785.752441 346.060059 681.183105 373.03125 647.138672"></polygon>
        <polygon id="Path-4-Copy" fill="#FBFBFB" points="500 700 626.96875 647.138672 653.939941 681.183105 558.498047 785.752441"></polygon>
        <g id="Nœud-papillon" transform="translate(420.000000, 693.000000)">
            <path d="M12.3076923,0 L61.5384615,24.6153846 L61.5384615,61.5384615 L12.3076923,86.1538462 C4.1025641,71.7948718 6.28024e-16,57.4358974 0,43.0769231 C0,28.7179487 4.1025641,14.3589744 12.3076923,0 Z" id="Rectangle" fill="#2372A9"></path>
            <path d="M110.769231,0 L160,24.6153846 L160,61.5384615 L110.769231,86.1538462 C102.564103,71.7948718 98.4615385,57.4358974 98.4615385,43.0769231 C98.4615385,28.7179487 102.564103,14.3589744 110.769231,0 Z" id="Rectangle-Copy-3" fill="#2372A9" transform="translate(129.230769, 43.076923) scale(-1, 1) translate(-129.230769, -43.076923) "></path>
            <path d="M61.5384615,24.6153846 C67.6923077,22.974359 73.8461538,22.1538462 80,22.1538462 C86.1538462,22.1538462 92.3076923,22.974359 98.4615385,24.6153846 C99.2820513,30.7692308 99.6923077,36.9230769 99.6923077,43.0769231 C99.6923077,49.2307692 99.2820513,55.3846154 98.4615385,61.5384615 C92.3076923,63.1794872 86.1538462,64 80,64 C73.8461538,64 67.6923077,63.1794872 61.5384615,61.5384615 C60.7179487,55.3846154 60.3076923,49.2307692 60.3076923,43.0769231 C60.3076923,36.9230769 60.7179487,30.7692308 61.5384615,24.6153846 Z" id="Rectangle" fill="#1F6596"></path>
            <path d="M57.8545073,41.4459324 C39.5783398,41.3632353 26.6594265,39.6777997 19.1924405,36.458539 C18.2561483,36.054873 17.1698974,36.4866518 16.7662313,37.4229441 C16.3625653,38.3592364 16.7943441,39.4454872 17.7306364,39.8491533 C25.765829,43.3133862 39.103326,45.0534314 57.8378003,45.1382023 C58.8573925,45.1428158 59.6876753,44.320013 59.6922888,43.3004208 C59.6969023,42.2808286 58.8740995,41.4505459 57.8545073,41.4459324 Z" id="Path-9" fill-opacity="0.3" fill="#000000" fill-rule="nonzero"></path>
            <path d="M141.546815,41.4459324 C123.270647,41.3632353 110.351734,39.6777997 102.884748,36.458539 C101.948456,36.054873 100.862205,36.4866518 100.458539,37.4229441 C100.054873,38.3592364 100.486652,39.4454872 101.422944,39.8491533 C109.458137,43.3133862 122.795634,45.0534314 141.530108,45.1382023 C142.5497,45.1428158 143.379983,44.320013 143.384596,43.3004208 C143.38921,42.2808286 142.566407,41.4505459 141.546815,41.4459324 Z" id="Path-9-Copy" fill-opacity="0.3" fill="#000000" fill-rule="nonzero" transform="translate(121.845918, 40.722721) scale(-1, 1) translate(-121.845918, -40.722721) "></path>
        </g>
    </g>
</svg>