<?xml version="1.0" encoding="UTF-8"?>
<svg width="1000px" height="1000px" viewBox="0 0 1000 1000" version="1.1" xmlns="http://www.w3.org/2000/svg" xmlns:xlink="http://www.w3.org/1999/xlink">
    <!-- Generator: Sketch 54.1 (76490) - https://sketchapp.com -->
    <title>2-body/2/1</title>
    <desc>Created with Sketch.</desc>
    <g id="2-body/2/1" stroke="none" stroke-width="1" fill="none" fill-rule="evenodd">
        <path d="M380.559938,663.84987 C395.754258,755.700604 451.35674,771.140625 499,771.140625 C546.805429,771.140625 602.624356,755.595315 617.593812,662.90928 L820.854944,766.462586 C851.01204,781.826404 870,812.810117 870,846.655314 L870,1000 L130,1000 L130,846.655314 C130,812.810117 148.98796,781.826404 179.145056,766.462586 L380.559938,663.84987 L380.559938,663.84987 Z" id="Path" fill="#FFBEBE"></path>
        <rect id="Rectangle" fill="#56B3AA" x="130" y="848" width="740" height="152"></rect>
        <polygon id="leftsleeve" fill="#6AC4BC" points="130 848.035156 284 1000 130 1000"></polygon>
        <polygon id="rightsleeve" fill="#6AC4BC" transform="translate(793.000000, 923.982422) scale(-1, 1) translate(-793.000000, -923.982422) " points="716 848 870 999.964844 716 999.964844"></polygon>
        <path d="M378.636945,664.829556 L380.92173,665.978911 C396.618581,755.939814 451.727246,771.140625 499,771.140625 C519.868081,771.140625 542.26314,768.178455 562.120784,757.130644 L562.140625,757.140625 L130,1000 L130,846.655314 C130,812.810117 148.98796,781.826404 179.145056,766.462586 L378.636945,664.829556 Z" id="Path" fill-opacity="0.05" fill="#000000"></path>
        <path d="M499,771.140625 C405.666667,771.140625 336.40625,751.127604 291.21875,711.101562 C284,688.414063 278.804688,662.918676 326.761719,632.640625 C326.761719,601.533383 340.806112,578.19008 368.894897,562.610718 C372.25533,595.787882 375.623698,625.917643 379,653 C382.376302,680.082357 422.376302,719.462565 499,771.140625 Z M499,771.140625 C575.623698,719.462565 615.623698,680.082357 619,653 C622.376302,625.917643 625.74467,595.787882 629.105103,562.610718 C657.193888,578.19008 671.238281,601.533383 671.238281,632.640625 C719.195312,662.918676 714,688.414063 706.78125,711.101562 C661.59375,751.127604 592.333333,771.140625 499,771.140625 Z" id="Shape" fill="#6AC4BC"></path>
        <path d="M369.605599,569.783081 C372.740733,601.133541 375.921191,629.118933 379.146973,653.739258 C379.371907,655.456034 379.75015,657.225778 380.281704,659.04849 C367.373693,630.592887 361.696599,607.087383 363.250421,588.531977 C363.941104,580.283989 366.059497,574.034357 369.605599,569.783081 Z" id="Path-4-Copy-2" fill-opacity="0.3" fill="#000000"></path>
        <path d="M624.285599,569.783081 C627.420733,601.133541 630.601191,629.118933 633.826973,653.739258 C634.051907,655.456034 634.43015,657.225778 634.961704,659.04849 C622.053693,630.592887 616.376599,607.087383 617.930421,588.531977 C618.621104,580.283989 620.739497,574.034357 624.285599,569.783081 Z" id="Path-4-Copy-4" fill-opacity="0.3" fill="#000000" transform="translate(626.320852, 614.415785) scale(-1, 1) translate(-626.320852, -614.415785) "></path>
        <path d="M302.120674,652.121273 C308.087515,645.849051 316.1147,639.362705 326.761719,632.640625 C331.826823,666.096354 352.242188,695.186849 388.007813,719.912109 C336.897248,711.625508 308.268201,689.028562 302.120674,652.121273 L302.120674,652.121273 Z M695.887139,652.121273 C689.739611,689.028562 661.110565,711.625508 610,719.912109 C645.765625,695.186849 666.18099,666.096354 671.246094,632.640625 C681.893113,639.362705 689.920297,645.849051 695.887139,652.121273 L695.887139,652.121273 Z" id="shadow" fill-opacity="0.05" fill="#000000"></path>
        <circle id="Oval" fill="#EBEBEB" cx="415" cy="744" r="13"></circle>
        <circle id="Oval-Copy" fill="#000000" cx="415" cy="744" r="8"></circle>
        <path d="M412,741 L418,741 C419.656854,741 421,742.343146 421,744 L421,857.514719 C421,859.106018 420.367859,860.632141 419.242641,861.757359 L415,866 L410.757359,861.757359 C409.632141,860.632141 409,859.106018 409,857.514719 L409,744 C409,742.343146 410.343146,741 412,741 Z" id="Rectangle" fill="#FFFFFF"></path>
        <rect id="Rectangle" fill="#F9F6F6" x="412" y="863" width="6" height="20"></rect>
        <circle id="Oval-Copy-3" fill="#EBEBEB" cx="585" cy="744" r="13"></circle>
        <circle id="Oval-Copy-2" fill="#000000" cx="585" cy="744" r="8"></circle>
        <path d="M582,741 L588,741 C589.656854,741 591,742.343146 591,744 L591,887.514719 C591,889.106018 590.367859,890.632141 589.242641,891.757359 L585,896 L580.757359,891.757359 C579.632141,890.632141 579,889.106018 579,887.514719 L579,744 C579,742.343146 580.343146,741 582,741 Z" id="Rectangle-Copy-2" fill="#FFFFFF"></path>
        <rect id="Rectangle-Copy" fill="#F9F6F6" x="582" y="893" width="6" height="20"></rect>
    </g>
</svg>