<?xml version="1.0" encoding="UTF-8"?>
<svg width="1000px" height="1000px" viewBox="0 0 1000 1000" version="1.1" xmlns="http://www.w3.org/2000/svg" xmlns:xlink="http://www.w3.org/1999/xlink">
    <!-- Generator: Sketch 54.1 (76490) - https://sketchapp.com -->
    <title>8-eyebrows/3/2</title>
    <desc>Created with Sketch.</desc>
    <g id="8-eyebrows/3/2" stroke="none" stroke-width="1" fill="none" fill-rule="evenodd">
        <path d="M569.193737,300.296123 C544.064781,300.296123 523.693737,310.37185 523.693737,297.244897 C523.693737,284.117943 541.897469,282.877584 567.026425,282.877584 C592.155381,282.877584 616.366948,291.978213 614.693737,297.244897 C613.020526,302.51158 594.322693,300.296123 569.193737,300.296123 Z" id="righteyebrow" fill="#243055" transform="translate(569.234728, 293.434139) rotate(10.000000) translate(-569.234728, -293.434139) "></path>
        <path d="M429.838892,300.116238 C454.967848,300.116238 475.338892,310.191965 475.338892,297.065012 C475.338892,283.938059 457.13516,282.697699 432.006204,282.697699 C406.877248,282.697699 382.665681,291.798329 384.338892,297.065012 C386.012103,302.331695 404.709936,300.116238 429.838892,300.116238 Z" id="lefteyebrow" fill="#243055" transform="translate(429.797901, 293.254255) rotate(-10.000000) translate(-429.797901, -293.254255) "></path>
    </g>
</svg>