<?xml version="1.0" encoding="UTF-8"?>
<svg width="1000px" height="1000px" viewBox="0 0 1000 1000" version="1.1" xmlns="http://www.w3.org/2000/svg" xmlns:xlink="http://www.w3.org/1999/xlink">
    <!-- Generator: Sketch 54.1 (76490) - https://sketchapp.com -->
    <title>6-hair/1/1</title>
    <desc>Created with Sketch.</desc>
    <g id="6-hair/1/1" stroke="none" stroke-width="1" fill="none" fill-rule="evenodd">
        <path d="M344,237.75 C347.256836,208.482422 348.450077,183.387581 359.083151,154.173449 C369.198177,126.382644 388.151453,107.477349 402.48352,110.254161 C404.705886,102.779349 407.876012,95.0026561 411.985123,87.2745411 C429.097734,55.0904008 456.015447,35.9362561 472.107517,44.4925616 C479.699847,48.5294752 483.525913,58.0135042 483.652308,70.2861837 C504.039411,53.6940878 525.128842,47.5906842 536.889958,56.7794746 C542.526241,61.1830215 545.273098,68.5149254 545.376426,77.5760994 C575.697468,60.8281992 606.295891,58.9772397 615.723094,74.0639187 C622.793733,85.3793061 616.079781,103.222151 600.322159,119.836224 C600.629875,120.106019 600.93794,120.376943 601.246356,120.648996 C615.206497,112.617634 628.604549,111.022845 634.665951,117.754713 C639.949797,123.623019 638.358153,134.374486 631.605266,145.676983 C634.689634,143.57183 637.919764,142.612623 641.115882,143.061808 C653.147901,144.752798 660.141618,165.763183 656.736787,189.989815 C655.651134,197.71464 653.639351,204.833729 651.012367,210.89317 C660.397945,256.545426 660.371896,317.976335 655,404 L654.8861,404 C654.961855,401.022338 655,398.022093 655,395 C655,367.642609 653.63227,341.9197 650.127995,318.446213 C648.152128,305.210811 633.497009,292.690547 630.024821,280.995654 C626.222286,268.188102 633.439814,256.370444 627.496391,245.687467 C615.037879,223.293972 607.47816,205.886248 583.14999,194.797846 C574.646457,188.677191 552.069362,187.390395 535.418706,190.937458 C512.068014,195.911819 487.931395,195.911966 464.580642,190.937891 C447.92939,187.390913 425.351933,188.677829 416.848271,194.798639 C392.519706,205.887669 384.959952,223.296362 372.501617,245.691048 C366.558641,256.373941 373.776523,268.191426 369.974265,280.998732 C366.50233,292.6934 351.8474,305.213377 349.871672,318.448441 C346.367643,341.921327 345,367.643475 345,395 C345,398.022093 345.038145,401.022338 345.1139,404 L345,404 C339.826999,333.805802 338.913744,279.985651 344.003714,237.75135 L344,237.75 Z" id="hair" fill="#C15429"></path>
        <path d="M410.092717,189.937714 C406.372767,162.207179 410.372359,141.776937 422.214809,128.730125 C422.771598,128.116711 423.720236,128.070807 424.33365,128.627597 C424.947064,129.184386 424.992968,130.133023 424.436178,130.746438 C413.283836,143.032959 409.452699,162.602717 413.066083,189.538848 C413.176227,190.359921 412.599905,191.11482 411.778833,191.224964 C410.957761,191.335108 410.202861,190.758787 410.092717,189.937714 Z M466.417711,182.003845 C466.271044,182.819186 465.491183,183.361253 464.675842,183.214586 C463.860502,183.067919 463.318435,182.288058 463.465101,181.472717 C470.902085,140.129552 492.824759,108.425992 529.16533,86.4546516 C529.874259,86.0260363 530.796421,86.2532756 531.225036,86.9622047 C531.653651,87.6711338 531.426412,88.5932957 530.717483,89.0219109 C495.112255,110.548666 473.701596,141.511773 466.417711,182.003845 Z M481.29366,122.387441 C480.935139,123.13427 480.039076,123.449057 479.292246,123.090535 C478.545417,122.732014 478.230631,121.835951 478.589152,121.089121 C484.815623,108.118863 498.346394,95.2646298 519.155332,82.4607494 C519.860894,82.0266127 520.784801,82.2466459 521.218938,82.9522072 C521.653075,83.6577686 521.433042,84.5816764 520.72748,85.0158131 C500.364543,97.5452661 487.228648,110.024367 481.29366,122.387441 Z M530.338215,182.285021 C530.036259,183.056458 529.166102,183.437046 528.394666,183.13509 C527.62323,182.833134 527.242641,181.962977 527.544597,181.191541 C535.538044,160.769925 551.796151,144.173108 576.247239,131.40857 C576.981618,131.025192 577.887739,131.309735 578.271117,132.044114 C578.654495,132.778493 578.369953,133.684614 577.635574,134.067992 C553.790766,146.516025 538.048873,162.585875 530.338215,182.285021 Z" id="lines" fill-opacity="0.3" fill="#000000" fill-rule="nonzero"></path>
    </g>
</svg>