<?xml version="1.0" encoding="UTF-8"?>
<svg width="1000px" height="1000px" viewBox="0 0 1000 1000" version="1.1" xmlns="http://www.w3.org/2000/svg" xmlns:xlink="http://www.w3.org/1999/xlink">
    <!-- Generator: Sketch 54.1 (76490) - https://sketchapp.com -->
    <title>6-hair/3/5</title>
    <desc>Created with Sketch.</desc>
    <g id="6-hair/3/5" stroke="none" stroke-width="1" fill="none" fill-rule="evenodd">
        <path d="M654.8861,404 C654.961855,401.022338 655,398.022093 655,395 C655,367.642609 653.63227,341.9197 650.127995,318.446213 C648.152128,305.210811 633.497009,292.690547 630.024821,280.995654 C626.222286,268.188102 633.439814,256.370444 627.496391,245.687467 C615.037879,223.293972 607.47816,205.886248 583.14999,194.797846 C574.646457,188.677191 552.069362,187.390395 535.418706,190.937458 C512.068014,195.911819 487.931395,195.911966 464.580642,190.937891 C447.92939,187.390913 425.351933,188.677829 416.848271,194.798639 C392.519706,205.887669 384.959952,223.296362 372.501617,245.691048 C366.558641,256.373941 373.776523,268.191426 369.974265,280.998732 C366.50233,292.6934 351.8474,305.213377 349.871672,318.448441 C346.367643,341.921327 345,367.643475 345,395 C345,398.022093 345.038145,401.022338 345.1139,404 C345.038145,401.022338 345,398.022093 345,395 C345,271.288216 342.96875,141 500,141 C657.03125,141 655,271.288216 655,395 C655,398.022093 654.961855,401.022338 654.8861,404 L654.8861,404 Z" id="hair" fill="#ACACAC"></path>
    </g>
</svg>