<?xml version="1.0" encoding="UTF-8"?>
<svg width="1000px" height="1000px" viewBox="0 0 1000 1000" version="1.1" xmlns="http://www.w3.org/2000/svg" xmlns:xlink="http://www.w3.org/1999/xlink">
    <!-- Generator: Sketch 54.1 (76490) - https://sketchapp.com -->
    <title>6-hair/4/4</title>
    <desc>Created with Sketch.</desc>
    <g id="6-hair/4/4" stroke="none" stroke-width="1" fill="none" fill-rule="evenodd">
        <path d="M562.326386,163.837356 C514.62145,134.446114 465.312699,134.775719 414.335487,164.83176 C406.580296,170.758346 398.789249,177.475293 390.96207,184.982617 C397.286894,189.682463 403.925599,193.983658 410.840954,197.849107 C391.161287,208.967801 383.871441,225.253033 372.501617,245.691048 C366.558641,256.373941 373.776523,268.191426 369.974265,280.998732 C366.50233,292.6934 351.8474,305.213377 349.871672,318.448441 C346.367643,341.921327 345,367.643475 345,395 C345,398.022093 345.038145,401.022338 345.1139,404 C345.038145,401.022338 345,398.022093 345,395 C345,338.080605 311.304687,280.998732 331.925781,217.214844 C338.19414,197.825944 359.163231,182.278073 387.237385,182.234129 C387.262508,182.201518 387.292097,182.171501 387.32604,182.144994 C396.191595,175.221411 405.010566,169.172411 413.78263,163.998019 C476.474567,116.124901 536.984749,119.563138 595.168461,174.321915 C601.030838,176.696032 606.868406,179.333483 612.681172,182.23429 C640.716361,182.306734 661.652591,197.843813 667.915173,217.214844 C688.536267,280.998732 654.840954,338.080605 654.840954,395 C654.840954,398.022093 654.802809,401.022338 654.727054,404 C654.802809,401.022338 654.840954,398.022093 654.840954,395 C654.840954,367.643475 653.473311,341.921327 649.969282,318.448441 C647.993554,305.213377 633.338624,292.6934 629.866689,280.998732 C626.064432,268.191426 633.282314,256.373941 627.339338,245.691048 C615.969514,225.253033 608.679667,208.967801 589,197.849107 C594.971664,194.511149 600.73703,190.848258 606.272169,186.884361 L606.268994,186.881005 C602.395977,182.749142 598.51317,178.848473 594.62053,175.179001 C585.809717,171.618955 576.943071,168.656359 568.020485,166.291234 C575.035742,170.938875 582.015159,176.228083 588.958532,182.158876 C589.168503,182.338226 589.193327,182.653834 589.013976,182.863805 C588.834626,183.073777 588.519018,183.0986 588.309046,182.919249 C580.579874,176.317254 572.807869,170.514873 564.992745,165.51213 C515.654692,153.198328 464.610638,159.101291 411.841669,183.224268 C411.590525,183.339077 411.293861,183.228556 411.179052,182.977411 C411.064243,182.726267 411.174765,182.429603 411.425909,182.314794 C463.364226,158.571544 513.670332,152.411379 562.326386,163.837356 L562.326386,163.837356 Z M565.392338,164.581161 C574.521974,166.867065 583.593338,169.773902 592.606309,173.301693 C537.410751,122.445251 480.24001,117.991775 420.968601,159.949223 C470.645651,133.276988 518.806668,134.819254 565.392333,164.581157 L565.392338,164.581161 Z M611.684986,182.855583 C606.863451,180.46391 602.024942,178.25412 597.16944,176.226216 C600.453251,179.386072 603.729646,182.709708 606.998584,186.19712 C607.029821,186.230445 607.055611,186.266914 607.07599,186.30543 C608.63091,185.179157 610.167421,184.029029 611.684986,182.855583 Z M388.098186,182.810885 C388.778357,183.337254 389.462337,183.858937 390.150079,184.375887 C395.81448,178.93752 401.461519,173.910861 407.091094,169.295915 C400.785541,173.348927 394.454632,177.853897 388.098186,182.810885 L388.098186,182.810885 Z" id="Shape" fill="#462E13"></path>
    </g>
</svg>