<?xml version="1.0" encoding="UTF-8"?>
<svg width="1000px" height="1000px" viewBox="0 0 1000 1000" version="1.1" xmlns="http://www.w3.org/2000/svg" xmlns:xlink="http://www.w3.org/1999/xlink">
    <!-- Generator: Sketch 54.1 (76490) - https://sketchapp.com -->
    <title>6-hair/5/3</title>
    <desc>Created with Sketch.</desc>
    <g id="6-hair/5/3" stroke="none" stroke-width="1" fill="none" fill-rule="evenodd">
        <path d="M654.9967,401.682453 C654.920916,375.189218 653.533149,350.255732 650.127995,327.446213 C648.152128,314.210811 633.497009,301.690547 630.024821,289.995654 C626.222286,277.188102 633.439814,265.370444 627.496391,254.687467 C615.037879,232.293972 607.47816,214.886248 583.14999,203.797846 C574.646457,197.677191 552.069362,196.390395 535.418706,199.937458 C512.068014,204.911819 487.931395,204.911966 464.580642,199.937891 C447.92939,196.390913 425.351933,197.677829 416.848271,203.798639 C392.519706,214.887669 384.959952,232.296362 372.501617,254.691048 C366.558641,265.373941 373.776523,277.191426 369.974265,289.998732 C366.50233,301.6934 351.8474,314.213377 349.871672,327.448441 C346.453023,350.349379 345.067917,375.391302 345.002447,402.003186 C345.024477,401.999082 345.046518,401.995053 345.068571,401.991098 C345.203751,408.855105 345.538065,415.600789 346.065016,422.219225 C344.228747,421.939909 342.449889,421.142278 340.960897,419.813149 L340.220951,419.152646 C336.828601,416.12451 336.007195,411.289467 337.912669,407.396419 C334.067414,409.433883 329.188926,408.752577 326.057818,405.433525 L325.377193,404.712045 C322.262248,401.410126 321.854153,396.533761 324.073137,392.820722 C320.071596,394.508724 315.281026,393.409555 312.450684,389.840552 L311.834381,389.063407 C309.012827,385.505486 309.025055,380.609908 311.556673,377.100397 C307.423797,378.441083 302.742785,376.934792 300.228517,373.134452 L299.681243,372.307243 C297.194401,368.548358 297.602109,363.716346 300.369336,360.438209 C296.163599,361.369197 291.680226,359.464905 289.517946,355.492211 L289.043777,354.621035 C286.867956,350.623461 287.726968,345.789252 290.839437,342.766266 C286.527904,343.391551 282.159479,341.102197 280.331589,336.916582 L279.934638,336.007619 C278.113215,331.836812 279.387436,327.095346 282.749693,324.35318 C278.400362,324.601413 274.247558,321.941396 272.79012,317.613055 L272.473604,316.673055 C271.030856,312.38834 272.680327,307.807898 276.219209,305.355768 C271.899518,305.189186 268.037312,302.189779 266.967616,297.780763 L266.73376,296.816868 C265.660678,292.393897 267.73543,287.943957 271.521241,285.824313 C267.194767,285.317467 263.564093,281.980487 262.875968,277.465812 L262.726516,276.485278 C262.043248,272.002474 264.475314,267.763767 268.405026,265.968658 C264.161045,265.074943 260.85407,261.448762 260.557207,256.90875 L260.492489,255.919005 C260.196859,251.397855 262.978977,247.386517 267.04278,245.932367 C262.895543,244.678675 259.913105,240.788189 260.001933,236.243385 L260.021315,235.251716 C260.110092,230.70949 263.23877,226.940213 267.428246,225.847111 C263.382602,224.254493 260.725709,220.112322 261.203592,215.57802 L261.307551,214.591625 C261.783872,210.072147 265.224869,206.582922 269.494206,205.852909 C265.599124,203.917895 263.308105,199.5607 264.17577,195.083311 L264.36447,194.109568 C265.22992,189.643605 268.965794,186.462473 273.287686,186.10892 C269.568257,183.845307 267.659245,179.301216 268.913462,174.911848 L269.185969,173.958159 C270.434158,169.589889 274.423235,166.746753 278.752946,166.762153 C275.254215,164.181886 273.753257,159.496046 275.381733,155.237897 L275.736031,154.311476 C277.356913,150.07318 281.569671,147.588081 285.876309,147.972082 C282.623584,145.097216 281.539333,140.305683 283.528158,136.20965 L283.961385,135.317407 C285.92436,131.274613 290.271194,129.165355 294.490261,129.859418 C291.569625,126.713132 290.936318,121.901762 293.2477,118.029366 L293.756056,117.177687 C296.078367,113.286981 300.645866,111.562831 304.81738,112.671964 C302.116584,109.28285 301.873962,104.385432 304.531231,100.696171 L305.110923,99.891347 C307.769989,96.1995909 312.496554,94.8787381 316.568642,96.3714013 C314.137764,92.7588259 314.305773,87.8326339 317.282093,84.3710136 L317.92874,83.6189288 C320.89381,80.170392 325.713797,79.2595831 329.641893,81.0935601 C327.532297,77.2865321 328.122641,72.3952534 331.383505,69.202612 L332.09223,68.5087152 C335.334505,65.3342745 340.199915,64.834905 343.952896,66.9816876 C342.193661,63.0131325 343.204147,58.2056096 346.718511,55.3105331 L347.484061,54.6798854 C350.990614,51.7912433 355.88865,51.7137696 359.44506,54.1833885 C358.024182,50.0748094 359.442552,45.3632499 363.197196,42.7773626 L364.014064,42.2147713 C367.743854,39.6460013 372.611405,39.979059 375.941895,42.7208916 C374.900994,38.5162864 376.720431,33.9657228 380.67123,31.7194674 L381.533469,31.2292353 C385.474052,28.9887881 390.300173,29.7428117 393.382072,32.7679716 C392.702267,28.485359 394.90826,24.1025783 399.042185,22.2042376 L399.943549,21.790322 C404.074696,19.8932572 408.832958,21.0734518 411.638936,24.3749688 C411.315952,20.0364103 413.896333,15.8421709 418.191525,14.3052897 L419.125401,13.9711355 C423.392965,12.4441397 428.016202,14.0188782 430.530253,17.5295832 C430.601729,13.1945709 433.531984,9.25996728 437.931288,8.10498782 L438.890636,7.85312378 C443.286836,6.69895945 447.768714,8.68313914 449.962087,12.4188744 C450.394932,8.09110452 453.660799,4.40743358 458.155889,3.63608993 L459.13346,3.46834185 C463.603148,2.70135708 467.886955,5.05432734 469.754892,8.95048849 C470.569401,4.68998658 474.134104,1.31575003 478.668388,0.934920757 L479.656766,0.851907983 C484.168577,0.472966208 488.228209,3.17643946 489.759698,7.20805869 C490.940231,3.04315905 494.773232,-0.00561104908 499.315641,7.75370095e-06 L500.307499,0.00123464737 C504.854503,0.00685913442 508.683094,3.07128765 509.849125,7.24555673 C511.363294,3.16523912 515.458619,0.426918784 520.004924,0.820963206 L520.993078,0.906610004 C525.518152,1.29881426 529.069195,4.67104901 529.880804,8.92284373 C531.744166,4.99597225 536.055492,2.62671613 540.545946,3.40997211 L541.523052,3.58040565 C545.996043,4.36061575 549.242784,8.02397367 549.686911,12.3280097 C551.88449,8.58010064 556.383235,6.59531881 560.787279,7.76437829 L561.745937,8.01885528 C566.135443,9.1840556 569.052785,13.1164944 569.120977,17.4439529 C571.635394,13.8996935 576.290398,12.3122179 580.577058,13.8595716 L581.509997,14.196334 C585.783373,15.7388925 588.348543,19.9124089 588.038379,24.231204 C590.850329,20.9157508 595.627349,19.7365081 599.765086,21.6504758 L600.665301,22.0668831 C604.755763,23.9589831 606.947063,28.2845222 606.31463,32.5273983 C609.405099,29.5275915 614.219904,28.7945019 618.14566,31.0397921 L619.006645,31.5322226 C622.926407,33.7740847 624.736251,38.2854263 623.72777,42.4648141 C627.065076,39.7271989 631.936537,39.4043449 635.661978,41.9835362 L636.477472,42.5481178 C640.22248,45.1408551 641.630182,49.849808 640.205577,53.9523518 C643.773366,51.4460783 648.709086,51.5194562 652.229382,54.4343396 L652.99334,55.0669143 C656.488128,57.9606766 657.491751,62.7472555 655.748007,66.7033612 C659.511557,64.5407818 664.397708,65.0450412 667.642943,68.2384037 L668.34992,68.9340805 C671.591729,72.1240711 672.176841,76.9945367 670.083064,80.7907053 C674.023235,78.941097 678.86417,79.8584074 681.830833,83.326422 L682.475584,84.0801326 C685.425399,87.5284519 685.596817,92.4168552 683.202392,96.0173163 C687.280534,94.5283443 692.009818,95.8597974 694.662205,99.5612548 L695.239935,100.367488 C697.886888,104.061362 697.633918,108.955126 694.928683,112.337475 C699.124729,111.195151 703.731772,112.928103 706.05905,116.849791 L706.565235,117.702762 C708.871875,121.589674 708.218297,126.412212 705.272938,129.550567 C709.530554,128.809314 713.934116,130.932198 715.90401,135.017905 L716.334773,135.91134 C718.306535,140.000922 717.221167,144.773531 713.982549,147.642201 C718.308518,147.245292 722.54199,149.745147 724.157582,154.005169 L724.509295,154.932575 C726.121488,159.183635 724.620102,163.851379 721.134573,166.426331 C725.485625,166.398718 729.495288,169.258726 730.736417,173.649056 L731.006237,174.603508 C732.238034,178.960827 730.357197,183.461608 726.690634,185.733046 C731.005184,186.104154 734.724975,189.292935 735.577619,193.755988 L735.763742,194.730227 C736.615121,199.186663 734.340821,203.515879 730.477389,205.455578 C734.755096,206.188268 738.198197,209.690577 738.663732,214.21907 L738.765162,215.205728 C739.229081,219.718504 736.590578,223.835115 732.574997,225.434838 C736.773304,226.530524 739.903913,230.313026 739.981596,234.863755 L739.998525,235.855469 C740.076117,240.400817 737.083614,244.284154 732.932807,245.527284 C737.038781,246.966491 739.851054,251.009417 739.541472,255.561076 L739.474166,256.550648 C739.16569,261.086046 735.854565,264.701295 731.613403,265.587765 C735.58036,267.374681 738.034573,271.644368 737.334829,276.152506 L737.182697,277.132628 C736.486923,281.615183 732.891069,284.927831 728.601464,285.457138 C732.383315,287.586175 734.447519,292.042583 733.362545,296.463714 L733.12615,297.42699 C732.050197,301.811361 728.212998,304.792767 723.918759,304.975086 C727.466339,307.432659 729.113691,312.027388 727.656888,316.317151 L727.337943,317.25633 C725.876272,321.56043 721.748958,324.205059 717.422693,323.974179 C720.794696,326.722089 722.06655,331.478556 720.230503,335.653954 L719.831249,336.561908 C718.001105,340.723885 713.658223,343.000411 709.367337,342.393422 C712.490453,345.422726 713.346693,350.272597 711.155722,354.274256 L710.679387,355.144249 C708.507439,359.111162 704.020007,361.004309 699.816955,360.063504 C702.627463,363.349857 703.045412,368.223733 700.531598,372.002013 L699.982177,372.827797 C697.46143,376.616498 692.785706,378.111697 688.660386,376.769719 C691.22488,380.290003 691.239891,385.22034 688.39313,388.790476 L687.774759,389.565977 C684.946678,393.112686 680.181097,394.2048 676.194091,392.536136 C678.423809,396.258828 678.009146,401.151821 674.876945,404.454554 L674.194421,405.174238 C671.074041,408.464506 666.234748,409.145089 662.405966,407.143654 C664.306399,411.042865 663.473859,415.88019 660.071587,418.901693 L659.329966,419.560314 C657.765515,420.949677 655.884004,421.754146 653.953185,421.989592 C654.477694,415.342694 654.808004,408.567669 654.937539,401.673547 C654.957267,401.676456 654.976987,401.679425 654.9967,401.682453 L654.9967,401.682453 Z M344.999994,402.003643 C344.999956,396.631997 344.99975,396.632036 344.999374,402.003759 C344.999581,402.00372 344.999787,402.003682 344.999994,402.003643 L344.999994,402.003643 Z M655.000671,401.683063 L655.000671,399.194155 C655.0005,400.023995 655.000326,400.853621 655.000198,401.682991 C655.000356,401.683015 655.000514,401.683039 655.000671,401.683063 L655.000671,401.683063 Z" id="hair" fill="#F0B878"></path>
        <path d="M337.048244,123.418949 L337.656947,122.625551 C340.838926,118.478078 346.387101,117.024962 351.153062,118.986421 C351.919147,119.301708 352.284591,120.178332 351.969304,120.944417 C351.654018,121.710502 350.777393,122.075946 350.011308,121.760659 C346.49104,120.311872 342.388956,121.386244 340.037142,124.451658 L339.42844,125.245057 C337.066967,128.323062 337.102203,132.584449 339.438624,135.610286 C340.327472,136.76141 339.222353,138.376986 337.827326,137.965848 C334.176626,136.889926 330.208753,138.382761 328.186875,141.674229 L327.663461,142.526307 C325.640475,145.819578 326.104377,150.036354 328.717853,152.806075 C329.710853,153.858441 328.785333,155.567995 327.36129,155.311819 C323.630054,154.640594 319.85996,156.536754 318.196572,160.006991 L317.764333,160.90875 C316.112334,164.355228 316.971349,168.451308 319.790159,170.946278 C320.410494,171.495346 320.468268,172.443335 319.9192,173.06367 C319.370132,173.684006 318.422143,173.741779 317.801808,173.192711 C313.985813,169.815117 312.823959,164.274997 315.059056,159.612031 L315.491296,158.710272 C317.261267,155.017675 320.793214,152.642891 324.678183,152.239127 C322.88287,148.746418 322.952061,144.464512 325.107225,140.956066 L325.630639,140.103988 C327.77898,136.606647 331.550032,134.610608 335.464007,134.620339 C334.028604,130.956324 334.536089,126.693357 337.048244,123.418949 Z M620.966585,82.0951373 L621.769561,82.6911488 C625.960028,85.8015369 627.503633,91.3131158 625.631605,96.1052405 C625.330167,96.8768794 624.460266,97.2580524 623.688627,96.9566142 C622.916988,96.655176 622.535815,95.7852752 622.837253,95.0136364 C624.22,91.4740028 623.078726,87.3989833 619.981526,85.1000766 L619.17855,84.5040651 C616.058421,82.1881388 611.790004,82.2954391 608.80157,84.689615 C607.664225,85.6007961 606.026746,84.5186532 606.419092,83.1151329 C607.445435,79.4436467 605.890003,75.4910602 602.561232,73.5190373 L601.700874,73.0093462 C598.382853,71.0436917 594.184454,71.568189 591.455862,74.2122781 C590.419771,75.2162816 588.702224,74.3217146 588.93099,72.8972241 C589.530764,69.1625186 587.574751,65.4357506 584.085992,63.8316613 L583.177429,63.4139147 C582.42475,63.0678421 582.095131,62.1771282 582.441203,61.4244494 C582.787276,60.6717707 583.67799,60.3421513 584.430669,60.6882239 L585.339232,61.1059705 C589.054424,62.814171 591.484384,66.3005115 591.954805,70.1729988 C595.416376,68.3287964 599.69239,68.3325618 603.229947,70.4282737 L604.090305,70.9379648 C607.625333,73.0321782 609.681777,76.7761159 609.730992,80.6934678 C613.373659,79.1950372 617.649189,79.6327894 620.966585,82.0951373 Z M704.5,246 L704.5,247 C704.5,247.828427 703.828427,248.5 703,248.5 C702.171573,248.5 701.5,247.828427 701.5,247 L701.5,246 C701.5,242.137173 698.900486,238.788348 695.226704,237.794253 C693.829771,237.416255 693.725261,235.474575 695.07355,234.948817 C698.604529,233.57193 700.828144,229.98704 700.434728,226.160083 L700.332466,225.165326 C699.937024,221.318663 697.002943,218.251162 693.241819,217.642315 C691.812475,217.410934 691.508153,215.488987 692.796096,214.82735 C696.170285,213.093974 698.014256,209.294816 697.225537,205.525947 L697.020702,204.54715 C696.229049,200.764267 692.995811,198.018208 689.194121,197.800068 C687.750122,197.717211 687.248268,195.84008 688.458263,195.047673 C691.629497,192.970883 693.064746,189.002898 691.888361,185.339206 L691.582641,184.387085 C690.399799,180.703281 686.891799,178.308254 683.084039,178.492891 C681.637357,178.56304 680.941237,176.745097 682.064782,175.831064 C685.008481,173.43629 686.026125,169.335853 684.472682,165.811109 L684.069387,164.896039 C683.735287,164.13797 684.078982,163.252592 684.837051,162.918492 C685.59512,162.584392 686.480498,162.928087 686.814598,163.686156 L687.217893,164.601226 C688.870486,168.35094 688.372733,172.581055 686.147206,175.793922 C689.970626,176.703853 693.179133,179.546221 694.439006,183.469926 L694.744726,184.422048 C695.996676,188.321076 695.062796,192.473729 692.517734,195.436955 C696.222217,196.742036 699.113576,199.901937 699.957091,203.932646 L700.161926,204.911442 C701.001024,208.921043 699.638279,212.954921 696.79668,215.636689 C700.346577,217.318465 702.895547,220.761398 703.316738,224.858539 L703.419,225.853296 C703.837552,229.924761 702.067387,233.792728 698.967617,236.166084 C702.32122,238.203482 704.5,241.885782 704.5,246 Z" id="lines" fill-opacity="0.3" fill="#000000" fill-rule="nonzero"></path>
    </g>
</svg>