<?xml version="1.0" encoding="UTF-8"?>
<svg width="1000px" height="1000px" viewBox="0 0 1000 1000" version="1.1" xmlns="http://www.w3.org/2000/svg" xmlns:xlink="http://www.w3.org/1999/xlink">
    <!-- Generator: Sketch 54.1 (76490) - https://sketchapp.com -->
    <title>6-hair/2/1</title>
    <desc>Created with Sketch.</desc>
    <g id="6-hair/2/1" stroke="none" stroke-width="1" fill="none" fill-rule="evenodd">
        <path d="M651.012367,210.89317 C660.397945,256.545426 660.371896,317.976335 655,404 L654.8861,404 C654.961855,401.022338 655,398.022093 655,395 C655,367.642609 653.63227,341.9197 650.127995,318.446213 C648.152128,305.210811 633.497009,292.690547 630.024821,280.995654 C626.222286,268.188102 633.439814,256.370444 627.496391,245.687467 C620.467623,233.05364 621.092123,227.011509 613.291016,217.791016 C584.566994,222.910668 555.950324,218.077334 527.441004,203.291016 C484.677025,181.111538 425.192886,188.792309 416.848271,194.798639 C392.519706,205.887669 384.959952,223.296362 372.501617,245.691048 C366.558641,256.373941 373.776523,268.191426 369.974265,280.998732 C366.50233,292.6934 351.8474,305.213377 349.871672,318.448441 C346.367643,341.921327 345,367.643475 345,395 C345,398.022093 345.038145,401.022338 345.1139,404 L345,404 C339.826999,333.805802 338.913744,279.985651 344.003714,237.75135 C345.23732,226.652373 337.521148,167.15018 372.501617,116.166016 C514.669922,106.376953 478.44106,16.453125 650.127995,91.0683594 C691.792167,109.175631 704.320312,147.824219 690.996094,175.566406 C678.921099,200.707601 651.182337,210.501115 651.012367,210.89317 Z" id="hair" fill="#C15429"></path>
        <path d="M689.24275,132.79593 C694.307208,141.991001 694.672556,160.112945 687.514583,175.116819 C677.562567,195.977301 654.984732,210.498132 617.762618,215.2641 C616.9409,215.369314 616.360058,216.120741 616.465272,216.94246 C616.570486,217.764178 617.321913,218.34502 618.143632,218.239806 C656.322413,213.351346 679.801953,198.250588 690.222234,176.408572 C697.792238,160.541038 697.406333,141.399447 691.870532,131.348601 C691.470863,130.622959 690.558618,130.358706 689.832976,130.758375 C689.107334,131.158043 688.843081,132.070288 689.24275,132.79593 Z" id="Path-3" fill-opacity="0.3" fill="#000000" fill-rule="nonzero"></path>
    </g>
</svg>