<?xml version="1.0" encoding="UTF-8"?>
<svg width="1000px" height="1000px" viewBox="0 0 1000 1000" version="1.1" xmlns="http://www.w3.org/2000/svg" xmlns:xlink="http://www.w3.org/1999/xlink">
    <!-- Generator: Sketch 54.1 (76490) - https://sketchapp.com -->
    <title>0-background/2/1</title>
    <desc>Created with Sketch.</desc>
    <g id="0-background/2/1" stroke="none" stroke-width="1" fill="none" fill-rule="evenodd">
        <rect id="background" fill="#B6EFFF" x="0" y="0" width="1000" height="1000"></rect>
        <path d="M26.7981,0.0001 L43.7711,0.0001 L54.2441,1000.0001 L51.2361,1000.0001 L26.7981,0.0001 Z M93.9822,0.0001 L110.9542,0.0001 L113.0482,1000.0001 L110.0412,1000.0001 L93.9822,0.0001 Z M166.5627,0.0001 L169.5917,0.0001 L165.4027,1000.0001 L148.4107,1000.0001 L166.5627,0.0001 Z M190.7862,0.0001 L205.0192,0.0001 L209.9062,1000.0001 L209.6372,1000.0001 L190.7862,0.0001 Z M250.2564,0.0001 L267.2284,0.0001 L256.7564,1000.0001 L253.7484,1000.0001 L250.2564,0.0001 Z M303.7803,0.0001 L305.2033,0.0001 L331.7353,1000.0001 L316.3473,1000.0001 L303.7803,0.0001 Z M371.3577,0.0001 L372.7807,0.0001 L385.3477,1000.0001 L369.9617,1000.0001 L371.3577,0.0001 Z M427.362,0.0001 L445.941,0.0001 L420.805,1000.0001 L416.191,1000.0001 L427.362,0.0001 Z M502.1403,0.0001 L503.5633,0.0001 L523.8103,1000.0001 L508.4243,1000.0001 L502.1403,0.0001 Z M600.4338,0.0001 L617.4068,0.0001 L633.1158,1000.0001 L630.1078,1000.0001 L600.4338,0.0001 Z M699.2286,0.0001 L702.2576,0.0001 L705.7486,1000.0001 L688.7566,1000.0001 L699.2286,0.0001 Z M764.8719,0.0001 L780.0149,0.0001 L778.6189,1000.0001 L777.4389,1000.0001 L764.8719,0.0001 Z M837.4146,0.0001 L842.2576,0.0001 L841.5586,1000.0001 L822.7386,1000.0001 L837.4146,0.0001 Z M872.9979,0.0001 L888.1599,0.0001 L895.8409,1000.0001 L894.6419,1000.0001 L872.9979,0.0001 Z M905.1603,0.0001 L909.9983,0.0001 L931.6433,1000.0001 L912.8403,1000.0001 L905.1603,0.0001 Z M957.4548,0.0001 L974.4468,0.0001 L969.5598,1000.0001 L966.5318,1000.0001 L957.4548,0.0001 Z" id="pattern" fill="#A2E6F9" transform="translate(500.622450, 500.000100) rotate(90.000000) translate(-500.622450, -500.000100) "></path>
    </g>
</svg>