<?xml version="1.0" encoding="UTF-8"?>
<svg width="1000px" height="1000px" viewBox="0 0 1000 1000" version="1.1" xmlns="http://www.w3.org/2000/svg" xmlns:xlink="http://www.w3.org/1999/xlink">
    <!-- Generator: Sketch 54.1 (76490) - https://sketchapp.com -->
    <title>0-background/2/3</title>
    <desc>Created with Sketch.</desc>
    <g id="0-background/2/3" stroke="none" stroke-width="1" fill="none" fill-rule="evenodd">
        <rect id="background" fill="#EBDAFF" x="0" y="0" width="1000" height="1000"></rect>
        <path d="M26.7981,0 L43.7711,0 L54.2441,1000 L51.2361,1000 L26.7981,0 Z M93.9822,0 L110.9542,0 L113.0482,1000 L110.0412,1000 L93.9822,0 Z M166.5627,0 L169.5917,0 L165.4027,1000 L148.4107,1000 L166.5627,0 Z M190.7862,0 L205.0192,0 L209.9062,1000 L209.6372,1000 L190.7862,0 Z M250.2564,0 L267.2284,0 L256.7564,1000 L253.7484,1000 L250.2564,0 Z M303.7803,0 L305.2033,0 L331.7353,1000 L316.3473,1000 L303.7803,0 Z M371.3577,0 L372.7807,0 L385.3477,1000 L369.9617,1000 L371.3577,0 Z M427.362,0 L445.941,0 L420.805,1000 L416.191,1000 L427.362,0 Z M502.1403,0 L503.5633,0 L523.8103,1000 L508.4243,1000 L502.1403,0 Z M600.4338,0 L617.4068,0 L633.1158,1000 L630.1078,1000 L600.4338,0 Z M699.2286,0 L702.2576,0 L705.7486,1000 L688.7566,1000 L699.2286,0 Z M764.8719,0 L780.0149,0 L778.6189,1000 L777.4389,1000 L764.8719,0 Z M837.4146,0 L842.2576,0 L841.5586,1000 L822.7386,1000 L837.4146,0 Z M872.9979,0 L888.1599,0 L895.8409,1000 L894.6419,1000 L872.9979,0 Z M905.1603,0 L909.9983,0 L931.6433,1000 L912.8403,1000 L905.1603,0 Z M957.4548,0 L974.4468,0 L969.5598,1000 L966.5318,1000 L957.4548,0 Z" id="pattern" fill="#E5CEFF" transform="translate(500.622450, 500.000000) rotate(90.000000) translate(-500.622450, -500.000000) "></path>
    </g>
</svg>