<?xml version="1.0" encoding="UTF-8"?>
<svg width="1000px" height="1000px" viewBox="0 0 1000 1000" version="1.1" xmlns="http://www.w3.org/2000/svg" xmlns:xlink="http://www.w3.org/1999/xlink">
    <!-- Generator: Sketch 54.1 (76490) - https://sketchapp.com -->
    <title>1-neck/1/3</title>
    <desc>Created with Sketch.</desc>
    <g id="1-neck/1/3" stroke="none" stroke-width="1" fill="none" fill-rule="evenodd">
        <path d="M359,450 C359,367.414063 405.666667,326.121094 499,326.121094 C592.333333,326.121094 639,367.414063 639,450 C634,517.666667 627.333333,585.333333 619,653 C610.666667,720.666667 570.666667,791.666667 499,866 C427.333333,791.666667 387.333333,720.666667 379,653 C370.666667,585.333333 364,517.666667 359,450 Z" id="neck" fill="#EEA482"></path>
        <path d="M359,450 C359,367.414063 405.666667,326.121094 499,326.121094 C592.333333,326.121094 639,367.414063 639,450 L631.652527,537.002197 C583.183016,592.332126 547.535475,628.105602 524.709902,644.322624 C444.085953,701.604009 384.849319,700.496468 379,653 C370.666667,585.333333 364,517.666667 359,450 Z" id="shadow" fill-opacity="0.05" fill="#000000"></path>
    </g>
</svg>