<?xml version="1.0" encoding="UTF-8"?>
<svg width="1000px" height="1000px" viewBox="0 0 1000 1000" version="1.1" xmlns="http://www.w3.org/2000/svg" xmlns:xlink="http://www.w3.org/1999/xlink">
    <!-- Generator: Sketch 54.1 (76490) - https://sketchapp.com -->
    <title>9-beard/3/4</title>
    <desc>Created with Sketch.</desc>
    <g id="9-beard/3/4" stroke="none" stroke-width="1" fill="none" fill-rule="evenodd">
        <path d="M428.229844,584.888287 L428.229844,574.971412 C428.229844,572.954888 431.357855,572.959058 431.357855,574.971412 L431.357855,586.843028 C430.30744,586.206432 429.264745,585.554809 428.229844,584.888287 L428.229844,584.888287 Z M355.985954,478.649008 C355.951377,478.527098 355.916878,478.405119 355.882457,478.283071 C355.869352,478.197559 355.862477,478.107632 355.862477,478.013292 L355.862477,468.175697 C355.862477,466.161258 358.990488,466.164386 358.990488,468.175697 L358.990488,478.013292 C358.990488,479.788692 356.565811,479.997751 355.985954,478.649008 L355.985954,478.649008 Z M346.942649,431.536204 C347.705765,431.559929 348.451281,432.063731 348.451281,433.046154 L348.451281,443.29476 C347.878615,439.425685 347.375244,435.505489 346.942649,431.536204 Z M390.289469,549.39222 L390.289469,544.056863 C390.289469,542.041381 393.41748,542.044509 393.41748,544.056863 L393.41748,553.362479 C392.359666,552.060447 391.316919,550.736922 390.289469,549.39222 L390.289469,549.39222 Z M402.800052,563.939509 C403.701392,563.26853 405.361894,563.668329 405.361894,565.135277 L405.361894,566.519901 C404.500092,565.672153 403.646113,564.811979 402.800052,563.939509 L402.800052,563.939509 Z M443.687118,593.453025 L443.687118,587.617856 C443.687118,585.601331 446.815129,585.605502 446.815129,587.617856 L446.815129,594.871241 C445.766149,594.412262 444.723449,593.939483 443.687118,593.453025 L443.687118,593.453025 Z M416.289359,576.262819 C416.40479,574.360993 419.413962,574.402862 419.413962,576.376619 L419.413962,578.708506 C418.363227,577.909555 417.321649,577.094267 416.289359,576.262819 L416.289359,576.262819 Z M653.864035,423.095428 C653.546158,426.956549 653.162592,430.77408 652.714636,434.54624 C651.872924,434.637519 650.954022,434.137061 650.954022,433.046362 L650.954022,423.912571 C650.954022,422.221392 653.154112,421.951471 653.864035,423.095428 L653.864035,423.095428 Z M648.846264,458.71907 L648.846264,451.314259 C648.846264,450.262442 649.697287,449.760103 650.511548,449.805909 C649.99875,452.80978 649.443413,455.781166 648.846264,458.71907 L648.846264,458.71907 Z M637.604922,498.156986 L637.604922,483.63391 C637.604922,481.617386 640.732933,481.620514 640.732933,483.63391 L640.732933,489.318301 C639.738717,492.311193 638.69571,495.257884 637.604922,498.156986 L637.604922,498.156986 Z M631.281231,431.45151 C632.35007,430.776577 633.390106,430.07988 634.401338,429.361418 C634.406555,429.41695 634.409242,429.474207 634.409242,429.533189 L634.409242,445.693536 C634.409242,447.71006 631.281231,447.706932 631.281231,445.693536 L631.281231,431.45151 L631.281231,431.45151 Z M608.09558,551.472418 L608.09558,540.544003 C608.09558,538.527478 611.223591,538.531649 611.223591,540.544003 L611.223591,547.381737 C610.1967,548.76704 609.15395,550.13071 608.09558,551.472418 L608.09558,551.472418 Z M628.788624,518.494158 C628.521432,519.03325 628.252376,519.570247 627.981466,520.105137 C627.054653,520.5554 625.660613,520.106966 625.660613,518.763558 L625.660613,512.439763 C625.660613,510.423238 628.788624,510.427409 628.788624,512.439763 L628.788624,518.494158 L628.788624,518.494158 Z M596.853718,564.295408 L596.853718,560.919866 C596.853718,558.903341 599.981728,558.906469 599.981728,560.919866 L599.981728,560.995656 C598.951405,562.114457 597.908675,563.214457 596.853718,564.295408 L596.853718,564.295408 Z M568.365184,587.010423 C567.351954,587.621146 566.331601,588.217891 565.304222,588.800523 C565.260879,588.655641 565.237139,588.495496 565.237139,588.320094 L565.237139,573.566309 C565.237139,571.549785 568.36515,571.553956 568.36515,573.566309 L568.36515,587.010443 L568.365184,587.010423 Z M551.184967,595.726376 L551.184967,586.212753 C551.184967,584.196229 554.312978,584.2004 554.312978,586.212753 L554.312978,594.371237 C553.276497,594.836535 552.233796,595.288289 551.184967,595.726376 Z M532.214832,601.975862 L532.214832,598.157584 C532.214832,596.14106 535.342843,596.144188 535.342843,598.157584 L535.342843,601.165939 C534.305161,601.448474 533.262467,601.718481 532.214832,601.975862 Z M520.270418,604.32668 L520.270418,600.967998 C520.270418,598.951474 523.398429,598.954602 523.398429,600.967998 L523.398429,603.821689 C522.360166,604.002093 521.317474,604.170453 520.270418,604.32668 L520.270418,604.32668 Z M478.114528,604.075532 L478.114528,593.942173 C478.114528,591.925648 481.242538,591.928776 481.242538,593.942173 L481.242538,604.480441 C481.242538,604.501654 481.242192,604.522643 481.241507,604.543409 C480.194864,604.399491 479.152516,604.243502 478.114528,604.075532 L478.114528,604.075532 Z M490.058941,605.461279 L490.058941,596.752482 C490.058941,594.735957 493.186952,594.739085 493.186952,596.752482 L493.186952,605.648348 C492.14044,605.59765 491.09775,605.535267 490.058941,605.461279 L490.058941,605.461279 Z M508.326525,605.566732 L508.326525,600.265342 C508.326525,598.248818 511.454536,598.251946 511.454536,600.265342 L511.454536,605.345054 C510.415784,605.430624 509.373094,605.504543 508.326525,605.566732 L508.326525,605.566732 Z M458.797008,599.420448 C457.993122,599.160122 457.192444,598.892106 456.39501,598.616449 C456.35558,598.477174 456.334083,598.324078 456.334083,598.157167 L456.334083,591.834415 C456.334083,589.81789 459.462094,589.821018 459.462094,591.834415 L459.462094,598.157167 C459.462094,598.756705 459.185594,599.177717 458.797008,599.420448 Z M609.500683,441.081632 C610.517024,440.77846 611.518331,440.463929 612.504603,440.138037 C612.583737,440.321611 612.628694,440.534094 612.628694,440.775469 L612.628694,448.503741 C612.628694,450.520265 609.500683,450.517137 609.500683,448.503741 L609.500683,441.081632 L609.500683,441.081632 Z M597.171419,444.063233 L597.171419,447.098951 C597.171419,449.114433 594.043408,449.111305 594.043408,447.098951 L594.043408,444.627582 C595.06379,444.454971 596.106061,444.267073 597.171419,444.063233 L597.171419,444.063233 Z M593.340857,551.083314 L593.340857,532.11297 C593.340857,530.096446 596.468868,530.099574 596.468868,532.11297 L596.468868,551.083314 C596.468868,553.099838 593.340857,553.095668 593.340857,551.083314 Z M599.664548,549.678837 L599.664548,536.328486 C599.664548,534.311962 602.792559,534.31509 602.792559,536.328486 L602.792559,549.678837 C602.792559,551.694319 599.664548,551.690148 599.664548,549.678837 Z M615.121406,530.708285 L615.121406,520.871733 C615.121406,518.855209 618.249416,518.858337 618.249416,520.871733 L618.249416,530.708285 C618.249416,532.723767 615.121406,532.720639 615.121406,530.708285 Z M615.823957,504.710969 L615.823957,494.1727 C615.823957,492.156176 618.951968,492.159304 618.951968,494.1727 L618.951968,504.710969 C618.951968,506.727494 615.823957,506.724366 615.823957,504.710969 Z M627.065715,481.526048 L627.065715,466.068461 C627.065715,464.051936 630.193726,464.056107 630.193726,466.068461 L630.193726,481.526048 C630.193726,483.542572 627.065715,483.538402 627.065715,481.526048 Z M641.820438,473.798297 L641.820438,455.529671 C641.820438,453.513146 644.948449,453.516274 644.948449,455.529671 L644.948449,473.798297 C644.948449,475.813779 641.820438,475.809608 641.820438,473.798297 Z M617.931715,468.878666 L617.931715,456.934877 C617.931715,454.918353 621.059726,454.921481 621.059726,456.934877 L621.059726,468.878666 C621.059726,470.89519 617.931715,470.892062 617.931715,468.878666 Z M577.883583,501.90066 L577.883583,482.931359 C577.883583,480.914835 581.011593,480.917963 581.011593,482.931359 L581.011593,501.90066 C581.011593,503.917184 577.883583,503.914056 577.883583,501.90066 Z M566.257392,540.544003 L566.257392,552.488834 C566.257392,554.505358 563.129381,554.501187 563.129381,552.488834 L563.129381,540.544003 C563.129381,538.527478 566.257392,538.531649 566.257392,540.544003 Z M541.348311,591.833997 L541.348311,577.07917 C541.348311,575.062646 544.476322,575.066816 544.476322,577.07917 L544.476322,591.833997 C544.476322,593.849479 541.348311,593.846351 541.348311,591.833997 Z M521.993326,581.99682 L521.993326,591.834415 C521.993326,593.849896 518.865315,593.846768 518.865315,591.834415 L518.865315,581.99682 C518.865315,579.981339 521.993326,579.985509 521.993326,581.99682 Z M521.676146,565.135382 L521.676146,556.70435 C521.676146,554.687825 524.804157,554.690953 524.804157,556.70435 L524.804157,565.135382 C524.804157,567.151906 521.676146,567.148778 521.676146,565.135382 Z M484.438323,584.104578 L484.438323,565.135277 C484.438323,563.118753 487.566334,563.121881 487.566334,565.135277 L487.566334,584.104578 C487.566334,586.121103 484.438323,586.117975 484.438323,584.104578 Z M468.981048,598.15748 L468.981048,590.429208 C468.981048,588.412683 472.109059,588.415811 472.109059,590.429208 L472.109059,598.15748 C472.109059,600.174004 468.981048,600.170876 468.981048,598.15748 Z M452.821118,579.187345 L452.821118,569.350793 C452.821118,567.334269 455.949129,567.337397 455.949129,569.350793 L455.949129,579.187345 C455.949129,581.202827 452.821118,581.199699 452.821118,579.187345 Z M412.070435,568.648242 L412.070435,547.228666 C412.070435,545.212142 415.198446,545.21527 415.198446,547.228666 L415.198446,568.648242 C415.198446,570.664767 412.070435,570.661639 412.070435,568.648242 Z M398.018367,534.195183 L398.018367,527.942289 C398.018367,525.925765 401.146378,525.928893 401.146378,527.942289 L401.146378,534.195183 C401.146378,536.211707 398.018367,536.208579 398.018367,534.195183 Z M405.044193,540.521168 L405.044193,555.570029 C405.044193,557.586553 401.916182,557.583425 401.916182,555.570029 L401.916182,540.521168 C401.916182,538.505686 405.044193,538.508814 405.044193,540.521168 Z M404.659239,511.737212 L404.659239,519.466527 C404.659239,521.483051 401.531228,521.479923 401.531228,519.466527 L401.531228,511.737212 C401.531228,509.720687 404.659239,509.724858 404.659239,511.737212 Z M371.319751,515.953458 L371.319751,500.49587 C371.319751,498.479346 374.447762,498.483517 374.447762,500.49587 L374.447762,515.953458 C374.447762,517.969982 371.319751,517.965811 371.319751,515.953458 Z M381.155886,515.251219 L381.155886,506.819144 C381.155886,504.80262 384.283897,504.806791 384.283897,506.819144 L384.283897,515.251219 C384.283897,517.266701 381.155886,517.263573 381.155886,515.251219 Z M370.93438,482.931463 L370.93438,490.659736 C370.93438,492.67626 367.80637,492.673132 367.80637,490.659736 L367.80637,482.931463 C367.80637,480.914939 370.93438,480.918067 370.93438,482.931463 Z M358.287937,443.586299 L358.287937,449.909052 C358.287937,451.925577 355.159926,451.922449 355.159926,449.909052 L355.159926,443.586299 C355.159926,441.569775 358.287937,441.572903 358.287937,443.586299 Z M373.745211,458.339771 L373.745211,467.473563 C373.745211,469.490088 370.6172,469.48696 370.6172,467.473563 L370.6172,458.339771 C370.6172,456.32429 373.745211,456.327418 373.745211,458.339771 Z M384.668851,535.625831 L384.668851,527.897559 C384.668851,525.881034 387.796862,525.884162 387.796862,527.897559 L387.796862,535.625831 C387.796862,537.642355 384.668851,537.639227 384.668851,535.625831 Z M439.471602,579.186615 L439.471602,572.161103 C439.471602,570.144578 442.599613,570.148749 442.599613,572.161103 L442.599613,579.186615 C442.599613,581.20314 439.471602,581.200012 439.471602,579.186615 Z M465.467667,575.67438 L465.467667,570.053345 C465.467667,568.03682 468.595678,568.039948 468.595678,570.053345 L468.595678,575.67438 C468.595678,577.689862 465.467667,577.686734 465.467667,575.67438 Z M473.899116,581.997029 L473.899116,570.756 C473.899116,568.739476 477.027127,568.742604 477.027127,570.756 L477.027127,581.997029 C477.027127,584.013553 473.899116,584.010425 473.899116,581.997029 Z M424.014328,558.109973 L424.014328,548.273422 C424.014328,546.256897 427.142338,546.260025 427.142338,548.273422 L427.142338,558.109973 C427.142338,560.125455 424.014328,560.121284 424.014328,558.109973 Z M380.771036,477.310741 L380.771036,485.741773 C380.771036,487.758297 377.643025,487.754126 377.643025,485.741773 L377.643025,477.310741 C377.643025,475.294216 380.771036,475.297344 380.771036,477.310741 Z M627.065715,502.603524 L627.065715,494.875252 C627.065715,492.858727 630.193726,492.861855 630.193726,494.875252 L630.193726,502.603524 C630.193726,504.620048 627.065715,504.61692 627.065715,502.603524 Z M643.928196,441.478333 L643.928196,436.559014 C643.928196,434.54249 647.056207,434.546661 647.056207,436.559014 L647.056207,441.478333 C647.056207,443.493815 643.928196,443.489644 643.928196,441.478333 Z M633.388989,461.85284 L633.388989,454.124568 C633.388989,452.108044 636.517,452.111172 636.517,454.124568 L636.517,461.85284 C636.517,463.869365 633.388989,463.866237 633.388989,461.85284 Z M606.305524,491.3626 L606.305524,498.388112 C606.305524,500.404637 603.177513,500.401509 603.177513,498.388112 L603.177513,491.3626 C603.177513,489.346075 606.305524,489.349203 606.305524,491.3626 Z M603.880064,522.277044 L603.880064,509.629454 C603.880064,507.612929 607.008075,507.6171 607.008075,509.629454 L607.008075,522.277044 C607.008075,524.292526 603.880064,524.290441 603.880064,522.277044 Z M583.504722,569.351002 L583.504722,560.21721 C583.504722,558.200686 586.632733,558.203814 586.632733,560.21721 L586.632733,569.351002 C586.632733,571.366484 583.504722,571.363356 583.504722,569.351002 Z M502.002834,601.670236 L502.002834,590.429208 C502.002834,588.412683 505.130845,588.415811 505.130845,590.429208 L505.130845,601.670236 C505.130845,603.686761 502.002834,603.683633 502.002834,601.670236 Z M497.787318,582.69958 L497.787318,571.458551 C497.787318,569.442027 500.915329,569.446198 500.915329,571.458551 L500.915329,582.69958 C500.915329,584.716104 497.787318,584.712976 497.787318,582.69958 Z M511.83949,579.187032 L511.83949,570.756 C511.83949,568.739476 514.967501,568.742604 514.967501,570.756 L514.967501,579.187032 C514.967501,581.203557 511.83949,581.200429 511.83949,579.187032 Z M525.891558,587.617856 L525.891558,575.674067 C525.891558,573.657543 529.019569,573.661714 529.019569,575.674067 L529.019569,587.617856 C529.019569,589.63438 525.891558,589.631252 525.891558,587.617856 Z M440.491855,551.083627 L440.491855,563.730175 C440.491855,565.746699 437.363844,565.742529 437.363844,563.730175 L437.363844,551.083627 C437.363844,549.067102 440.491855,549.07023 440.491855,551.083627 Z M416.988502,537.030829 L416.988502,525.789801 C416.988502,523.773276 420.116513,523.776404 420.116513,525.789801 L420.116513,537.030829 C420.116513,539.047354 416.988502,539.044226 416.988502,537.030829 Z M393.1003,499.090455 L393.1003,487.849426 C393.1003,485.832902 396.228311,485.83603 396.228311,487.849426 L396.228311,499.090455 C396.228311,501.106979 393.1003,501.103851 393.1003,499.090455 Z M574.370618,567.945378 L574.370618,556.70435 C574.370618,554.687825 577.498629,554.690953 577.498629,556.70435 L577.498629,567.945378 C577.498629,569.961903 574.370618,569.958774 574.370618,567.945378 Z M555.400483,572.863237 L555.400483,566.540484 C555.400483,564.52396 558.528494,564.527088 558.528494,566.540484 L558.528494,572.863237 C558.528494,574.879761 555.400483,574.876633 555.400483,572.863237 Z M534.32259,564.432622 L534.32259,552.488834 C534.32259,550.472309 537.450601,550.475437 537.450601,552.488834 L537.450601,564.432622 C537.450601,566.449146 534.32259,566.446018 534.32259,564.432622 Z M509.346778,549.678837 L509.346778,556.70435 C509.346778,558.720874 506.218767,558.716703 506.218767,556.70435 L506.218767,549.678837 C506.218767,547.662313 509.346778,547.665441 509.346778,549.678837 Z M460.549599,558.109035 L460.549599,547.570766 C460.549599,545.554242 463.67761,545.55737 463.67761,547.570766 L463.67761,558.109035 C463.67761,560.125559 460.549599,560.121389 460.549599,558.109035 Z M494.274458,562.325281 L494.274458,553.191489 C494.274458,551.174965 497.402468,551.178093 497.402468,553.191489 L497.402468,562.325281 C497.402468,564.340763 494.274458,564.336592 494.274458,562.325281 Z M552.907875,543.353999 L552.907875,556.70435 C552.907875,558.720874 549.779864,558.716703 549.779864,556.70435 L549.779864,543.353999 C549.779864,541.338517 552.907875,541.342688 552.907875,543.353999 Z M576.478376,533.517969 L576.478376,522.27694 C576.478376,520.260416 579.606387,520.263544 579.606387,522.27694 L579.606387,533.517969 C579.606387,535.534493 576.478376,535.531365 576.478376,533.517969 Z M584.207274,544.759727 L584.207274,539.841451 C584.207274,537.824927 587.335285,537.828055 587.335285,539.841451 L587.335285,544.759727 C587.335285,546.775209 584.207274,546.772081 584.207274,544.759727 Z M588.42279,515.250698 L588.42279,504.711386 C588.42279,502.694862 591.550801,502.699033 591.550801,504.711386 L591.550801,515.250698 C591.550801,517.266179 588.42279,517.263051 588.42279,515.250698 Z M615.439003,477.310741 L615.439003,482.931776 C615.439003,484.947258 612.310992,484.943087 612.310992,482.931776 L612.310992,477.310741 C612.310992,475.294216 615.439003,475.297344 615.439003,477.310741 Z M596.853718,474.500431 L596.853718,464.662837 C596.853718,462.647355 599.981728,462.651526 599.981728,464.662837 L599.981728,474.500431 C599.981728,476.516956 596.853718,476.512785 596.853718,474.500431 Z M359.375442,433.045945 L359.375442,429.533189 C359.375442,427.516665 362.503453,427.520835 362.503453,429.533189 L362.503453,433.045945 C362.503453,435.06247 359.375442,435.059342 359.375442,433.045945 Z M352.666797,415.481121 L352.666797,425.317673 C352.666797,427.334197 349.538786,427.331069 349.538786,425.317673 L349.538786,415.481121 C349.538786,413.46564 352.666797,413.468768 352.666797,415.481121 Z M394.505402,470.285228 L394.505402,456.934877 C394.505402,454.918353 397.633413,454.921481 397.633413,456.934877 L397.633413,470.285228 C397.633413,472.299667 394.505402,472.296539 394.505402,470.285228 Z M374.130061,446.396087 L374.130061,438.667815 C374.130061,436.651291 377.258072,436.654419 377.258072,438.667815 L377.258072,446.396087 C377.258072,448.412612 374.130061,448.409484 374.130061,446.396087 Z M385.371402,468.175802 L385.371402,449.206501 C385.371402,447.189977 388.499413,447.193105 388.499413,449.206501 L388.499413,468.175802 C388.499413,470.192326 385.371402,470.189198 385.371402,468.175802 Z M412.070435,495.577386 L412.070435,489.254633 C412.070435,487.238109 415.198446,487.241237 415.198446,489.254633 L415.198446,495.577386 C415.198446,497.59391 412.070435,497.590782 412.070435,495.577386 Z M425.737236,511.736899 L425.737236,525.087249 C425.737236,527.103774 422.609225,527.100646 422.609225,525.087249 L422.609225,511.736899 C422.609225,509.721417 425.737236,509.725588 425.737236,511.736899 Z M445.795397,548.273317 L445.795397,532.11297 C445.795397,530.096446 448.923408,530.099574 448.923408,532.11297 L448.923408,548.273317 C448.923408,550.289842 445.795397,550.285671 445.795397,548.273317 Z M566.959943,506.116906 L566.959943,520.871733 C566.959943,522.888258 563.831932,522.88513 563.831932,520.871733 L563.831932,506.116906 C563.831932,504.100381 566.959943,504.104552 566.959943,506.116906 Z M543.77377,524.385115 L543.77377,530.707868 C543.77377,532.724392 540.64576,532.721264 540.64576,530.707868 L540.64576,524.385115 C540.64576,522.368591 543.77377,522.371719 543.77377,524.385115 Z M500.212778,521.57418 L500.212778,534.220728 C500.212778,536.237253 497.084767,536.234125 497.084767,534.220728 L497.084767,521.57418 C497.084767,519.557656 500.212778,519.560784 500.212778,521.57418 Z M474.216817,534.923384 L474.216817,542.651656 C474.216817,544.668181 471.088806,544.665053 471.088806,542.651656 L471.088806,534.923384 C471.088806,532.90686 474.216817,532.909988 474.216817,534.923384 Z M485.458054,541.24645 L485.458054,553.89404 C485.458054,555.910565 482.330044,555.906394 482.330044,553.89404 L482.330044,541.24645 C482.330044,539.230968 485.458054,539.234096 485.458054,541.24645 Z M521.676146,538.43614 L521.676146,530.707868 C521.676146,528.691344 524.804157,528.694472 524.804157,530.707868 L524.804157,538.43614 C524.804157,540.452665 521.676146,540.449537 521.676146,538.43614 Z M465.467667,522.276419 L465.467667,515.953666 C465.467667,513.937142 468.595678,513.94027 468.595678,515.953666 L468.595678,522.276419 C468.595678,524.292943 465.467667,524.289815 465.467667,522.276419 Z M433.850983,522.276419 L433.850983,515.953666 C433.850983,513.937142 436.978994,513.94027 436.978994,515.953666 L436.978994,522.276419 C436.978994,524.292943 433.850983,524.289815 433.850983,522.276419 Z M407.151951,474.500223 L407.151951,470.987466 C407.151951,468.970942 410.279962,468.97407 410.279962,470.987466 L410.279962,474.500223 C410.279962,476.516747 407.151951,476.512576 407.151951,474.500223 Z" id="Shape" fill="#462E13"></path>
    </g>
</svg>