<?xml version="1.0" encoding="UTF-8"?>
<svg width="1000px" height="1000px" viewBox="0 0 1000 1000" version="1.1" xmlns="http://www.w3.org/2000/svg" xmlns:xlink="http://www.w3.org/1999/xlink">
    <!-- Generator: Sketch 54.1 (76490) - https://sketchapp.com -->
    <title>9-beard/4/2</title>
    <desc>Created with Sketch.</desc>
    <g id="9-beard/4/2" stroke="none" stroke-width="1" fill="none" fill-rule="evenodd">
        <path d="M402.5,444 C436.041164,450.491838 451.25,434 500,434 C548.75,434 553.541164,452.508162 597.5,444 C626.675464,438.353136 645.801753,425.113087 654.878867,404.279854 C653.845856,443.640203 685.313505,513.748467 654.878867,525.691406 C653.540807,570.712971 636.464844,628.070313 597.5,628.070313 C567.707031,661.207031 556.71875,683.0625 500,691.332031 C443.28125,699.601563 409.765625,653.269531 409.765625,628.070313 C353.494951,623.635326 342.665163,577.40349 342.266491,520.22874 C317.886719,500 346.095582,441.882494 345.118137,404.164977 C361.067038,426.404432 380.194325,439.682773 402.5,444 Z" id="beard" fill="#243055"></path>
        <path d="M581.700574,595.781846 C581.939712,594.988685 582.776555,594.539561 583.569716,594.778699 C584.362877,595.017837 584.812002,595.85468 584.572864,596.647841 C570.503577,643.312161 539.3046,669.767566 491.193271,675.826137 C490.371336,675.929642 489.621118,675.347238 489.517613,674.525303 C489.414108,673.703367 489.996512,672.953149 490.818447,672.849644 C537.751389,666.939465 567.972985,641.312839 581.700574,595.781846 Z M354.566485,530.217013 C354.574996,529.388629 355.253432,528.723991 356.081815,528.732501 C356.910199,528.741011 357.574837,529.419447 357.566327,530.247831 C357.215008,564.445434 364.461099,587.682302 379.158746,600.041399 C379.792799,600.574567 379.874582,601.520787 379.341414,602.15484 C378.808245,602.788893 377.862025,602.870676 377.227973,602.337507 C361.712078,589.290354 354.206867,565.222535 354.566485,530.217013 Z M384.493524,548.335347 C384.438691,547.508736 385.06434,546.794186 385.890951,546.739353 C386.717561,546.68452 387.432112,547.31017 387.486945,548.13678 C388.535665,563.946377 396.488109,578.366699 411.42734,591.441561 C426.961612,605.037205 435.63198,624.03845 437.441178,648.355504 C437.502644,649.181648 436.882749,649.901197 436.056605,649.962662 C435.230462,650.024128 434.510912,649.404234 434.449447,648.57809 C432.696145,625.012332 424.362607,606.749253 409.451566,593.699064 C393.945485,580.128093 385.598449,564.992249 384.493524,548.335347 Z" id="lines" fill-opacity="0.3" fill="#5A7BA6" fill-rule="nonzero"></path>
    </g>
</svg>