<?xml version="1.0" encoding="UTF-8"?>
<svg width="1000px" height="1000px" viewBox="0 0 1000 1000" version="1.1" xmlns="http://www.w3.org/2000/svg" xmlns:xlink="http://www.w3.org/1999/xlink">
    <!-- Generator: Sketch 54.1 (76490) - https://sketchapp.com -->
    <title>9-beard/5/6</title>
    <desc>Created with Sketch.</desc>
    <g id="9-beard/5/6" stroke="none" stroke-width="1" fill="none" fill-rule="evenodd">
        <path d="M589.249657,445.349171 C590.683848,443.255041 592.910987,441.702613 595.599781,441.182201 L596.581561,440.99218 C599.307238,440.464629 601.988469,441.098025 604.114487,442.547253 C605.179999,442.283872 606.230551,442.009186 607.266141,441.723195 C608.196809,439.25398 610.097193,437.15514 612.718145,436.043071 L613.638708,435.652477 C616.639308,434.379325 619.913732,434.684059 622.537053,436.192824 C622.989824,435.982841 623.4386,435.769839 623.883382,435.553819 C623.781657,432.456667 625.116375,429.356108 627.753037,427.31286 L628.543476,426.700319 C631.625404,424.312017 635.662216,424.006772 638.959951,425.569788 C637.212046,422.316055 637.341344,418.215138 639.63635,415.009064 L640.21842,414.195926 C641.546039,412.341272 643.390766,411.076117 645.415375,410.456312 C646.795577,406.528935 650.555763,403.730919 654.950189,403.774064 C660.47277,403.828285 664.905752,408.349177 664.851531,413.871758 L664.841713,414.87171 C664.797531,419.371817 661.787525,423.14844 657.686444,424.363288 C661.703917,425.81615 664.485233,429.756424 664.270224,434.246907 L664.222398,435.245763 C664.006441,439.756026 660.834565,443.424956 656.669684,444.46902 C660.644158,446.079544 663.275152,450.145871 662.869216,454.638093 L662.779219,455.634035 C662.372935,460.130105 659.050275,463.661114 654.846367,464.529257 C658.737942,466.327501 661.17135,470.513016 660.552795,474.979615 L660.415619,475.970162 C659.795698,480.446624 656.302409,483.818324 652.055925,484.480882 C655.851647,486.484051 658.060731,490.799045 657.201021,495.230133 L657.010555,496.211827 C656.144053,500.677919 652.43037,503.868827 648.117687,504.266991 C651.828353,506.488119 653.797447,510.962302 652.655735,515.360087 L652.404455,516.328001 C651.256529,520.749721 647.323408,523.709194 642.972787,523.814706 C646.54203,526.292475 648.199937,530.917918 646.735603,535.238549 L646.414621,536.185634 C644.947131,540.51558 640.803945,543.182069 636.453445,542.966352 C639.802565,545.739365 641.061801,550.492905 639.232415,554.675188 L638.831663,555.591375 C636.985195,559.812711 632.575489,562.118474 628.226478,561.481689 C631.335444,564.575931 632.135849,569.475925 629.875577,573.481602 L629.384147,574.352519 C627.097897,578.404236 622.409493,580.248521 618.113174,579.107029 C620.902154,582.553913 621.140637,587.572136 618.392656,591.313362 L617.800674,592.119313 C615.023823,595.899842 610.090539,597.16048 605.939877,595.451371 C608.283,599.261344 607.841799,604.314198 604.57807,607.663681 L603.880191,608.379897 C600.598119,611.748205 595.520041,612.307794 591.642166,610.019811 C593.379353,614.148717 592.165907,619.081981 588.419988,621.891652 L587.620012,622.491684 C583.847926,625.320982 578.7274,625.082187 575.248174,622.202283 C576.299399,626.562007 574.30172,631.240061 570.145464,633.406815 L569.258728,633.869092 C565.07174,636.051867 560.049693,634.979384 557.08545,631.561866 C557.428112,636.033483 554.710042,640.333217 550.261417,641.809527 L549.312314,642.124494 C544.844333,643.607227 540.072882,641.763316 537.684261,637.940378 C537.347304,642.393369 534.035518,646.223386 529.435122,647.028642 L528.450099,647.201062 C523.84477,648.007182 519.424397,645.523632 517.598502,641.442063 C516.662427,645.773324 512.906285,649.104698 508.271299,649.312618 L507.272303,649.357432 C502.63883,649.565284 498.600615,646.585621 497.279146,642.357766 C495.840047,646.522155 491.748649,649.377702 487.142419,649.061526 L486.144766,648.993047 C481.491454,648.673639 477.800907,645.21949 476.993713,640.834282 C475.065537,644.838335 470.616223,647.19855 466.052723,646.299944 L465.071564,646.106742 C460.487967,645.204179 457.257365,641.303133 457.016173,636.842492 C454.546851,640.541256 449.807472,642.257276 445.412399,640.726731 L444.468024,640.397861 C440.010092,638.845426 437.34927,634.455369 437.804382,629.955837 C434.813953,633.313133 429.816176,634.332908 425.664244,632.136356 L424.780321,631.668723 C420.616852,629.466068 418.648574,624.740559 419.761638,620.369242 C416.291791,623.199801 411.218538,623.428562 407.466137,620.629832 L406.664544,620.031963 C402.908075,617.230198 401.682343,612.294629 403.414428,608.159036 C399.572262,610.397597 394.561366,609.858776 391.28459,606.554642 L390.580429,605.844602 C387.268337,602.504858 386.796119,597.416963 389.151314,593.578642 C385.02946,595.296045 380.114902,594.079845 377.31218,590.344399 L376.712025,589.544515 C373.907772,585.80703 374.116082,580.744952 376.921919,577.267584 C372.642607,578.422484 367.958559,576.611207 365.648761,572.586193 L365.151032,571.71886 C362.834874,567.682764 363.645073,562.708515 366.822956,559.59812 C362.458737,560.263414 358.020762,557.960241 356.163527,553.724764 L355.761943,552.808941 C353.924534,548.618677 355.189489,543.851703 358.553476,541.078411 C354.224231,541.235342 350.132124,538.54444 348.70223,534.224601 L348.387991,533.275257 C346.953366,528.941126 348.647682,524.323978 352.239903,521.87304 C347.920032,521.666899 344.071783,518.652187 343.002116,514.236182 L342.766699,513.264288 C341.694055,508.835991 343.750589,504.382038 347.51724,502.22871 C343.231143,501.704094 339.619611,498.421871 338.872994,493.946103 L338.708454,492.959732 C337.957585,488.458474 340.339302,484.158473 344.262665,482.287714 C340.006791,481.497578 336.601069,477.984046 336.143644,473.459939 L336.043048,472.465012 C335.585558,467.940266 338.219854,463.815593 342.232387,462.190024 C338.048119,461.141591 334.870422,457.445073 334.6767,452.915665 L334.633969,451.916578 C334.440274,447.387792 337.289938,443.433913 341.368509,442.031535 C337.264064,440.75262 334.30315,436.903055 334.348314,432.382984 L334.358305,431.383034 C334.403614,426.84846 337.460235,423.04902 341.609675,421.865247 C337.567401,420.391381 334.79247,416.400356 335.056885,411.884595 L335.115339,410.886305 C335.438169,405.372901 340.169372,401.165109 345.682776,401.48794 C351.196181,401.81077 355.403972,406.541973 355.081141,412.055377 L355.022688,413.053668 C354.966725,414.009416 354.77829,414.925931 354.476271,415.786411 C354.497236,415.809471 354.518205,415.832518 354.539179,415.855551 C357.90573,414.982478 361.633,415.892832 364.230225,418.56532 L364.927161,419.282453 C367.25547,421.678233 368.142297,424.94135 367.602981,427.99781 C368.051141,428.344988 368.501126,428.687018 368.952938,429.023901 C371.852695,427.981533 375.193286,428.289065 377.942104,430.146359 L378.770695,430.706213 C381.210933,432.355009 382.692047,434.892207 383.074209,437.595379 C383.864527,437.97373 384.659627,438.338601 385.459508,438.689992 C387.868762,437.432475 390.779032,437.155713 393.531656,438.164954 L394.470538,438.509193 C396.981449,439.429811 398.900757,441.251683 399.996773,443.474868 C400.826686,443.662587 401.661095,443.837631 402.5,444 C436.041164,450.491838 451.25,434 500,434 C545.518202,434 552.71273,450.135568 589.249657,445.349171 Z" id="beard" fill="#FFFFFF"></path>
        <path d="M608.390561,549.789996 L607.886197,550.653487 C607.468369,551.368827 606.549755,551.610008 605.834415,551.19218 C605.119075,550.774352 604.877894,549.855738 605.295723,549.140398 L605.800086,548.276906 C607.790007,544.870075 607.164577,540.565842 604.361241,537.86859 C603.311839,536.8589 604.171858,535.096725 605.613478,535.302764 C609.437839,535.84935 613.194618,533.728328 614.677264,530.100579 L615.055584,529.174904 C616.54679,525.52621 615.327923,521.356286 612.180009,519.077126 C610.998258,518.221512 611.609806,516.353348 613.068756,516.362174 C616.929847,516.385532 620.363343,513.77785 621.342759,509.985259 L621.5928,509.017023 C622.560818,505.268571 620.871458,501.367909 617.550072,499.491741 C616.828769,499.084294 616.574337,498.169262 616.981784,497.447958 C617.38923,496.726654 618.304263,496.472223 619.025567,496.87967 C623.522329,499.419779 625.807227,504.695516 624.497506,509.767148 L624.247464,510.735383 C623.204378,514.774523 620.105098,517.81953 616.283313,518.917435 C618.735098,522.087673 619.423478,526.417314 617.832609,530.309863 L617.454289,531.235538 C615.873625,535.103119 612.383777,537.704319 608.441611,538.271533 C610.436451,541.757429 610.515907,546.15131 608.390561,549.789996 Z M457.998037,608.581635 L457.069409,608.210621 C456.300109,607.903263 455.925631,607.03046 456.232988,606.26116 C456.540346,605.491859 457.41315,605.117381 458.18245,605.424739 L459.111077,605.795752 C462.82369,607.279048 467.04492,605.968775 469.273843,602.714757 C470.089677,601.523716 471.952269,602.059778 472.010157,603.50228 C472.16717,607.414871 475.006313,610.753697 478.905663,611.500832 L479.887797,611.689014 C483.781414,612.435052 487.648574,610.389319 489.245024,606.820361 C489.82681,605.519744 491.723952,605.686795 492.069498,607.069068 C493.009532,610.829444 496.41022,613.511366 500.341815,613.499484 L501.341811,613.496461 C505.342627,613.484369 508.769779,610.687145 509.617751,606.832139 C509.927664,605.423229 511.853375,605.221207 512.448934,606.535127 C514.065505,610.101598 517.951678,612.127962 521.845827,611.354177 L522.826651,611.159283 C526.765286,610.376659 529.596768,606.951872 529.670505,602.99013 C529.685921,602.161846 530.369874,601.502887 531.198158,601.518303 C532.026442,601.533719 532.685401,602.217673 532.669985,603.045957 C532.570134,608.410781 528.740545,613.042818 523.411334,614.101756 L522.430509,614.29665 C518.24591,615.128148 514.069436,613.570585 511.431078,610.47506 C509.473874,614.084898 505.658752,616.483427 501.350878,616.496447 L500.350882,616.49947 C496.113078,616.512278 492.332273,614.212809 490.326321,610.702812 C487.710883,613.840292 483.529134,615.441286 479.323251,614.635417 L478.341117,614.447235 C474.152357,613.644647 470.868762,610.632854 469.586937,606.774371 C466.422824,609.383484 461.993485,610.177932 457.998037,608.581635 Z M370.5,470 L370.5,469 C370.5,468.171573 371.171573,467.5 372,467.5 C372.828427,467.5 373.5,468.171573 373.5,469 L373.5,470 C373.5,473.907077 376.15897,477.284153 379.890358,478.236522 C381.295003,478.595032 381.424508,480.539711 380.079806,481.081313 C376.525251,482.51297 374.338637,486.184642 374.830991,490.04183 L374.95761,491.033781 C375.452021,494.907083 378.513859,497.919229 382.333063,498.394085 C383.767499,498.572433 384.144539,500.476927 382.886258,501.188363 C379.553116,503.072934 377.867207,506.995509 378.857477,510.752732 L379.112338,511.71971 C379.323471,512.52078 378.845233,513.341334 378.044162,513.552468 C377.243092,513.763601 376.422538,513.285363 376.211404,512.484292 L375.956544,511.517314 C374.899538,507.506888 376.095562,503.358398 378.863361,500.532871 C375.205381,498.965295 372.510189,495.553475 371.981756,491.413637 L371.855137,490.421685 C371.330218,486.30938 373.05524,482.35403 376.164958,479.913295 C372.738754,477.894339 370.5,474.170896 370.5,470 Z" id="lines" fill-opacity="0.3" fill="#000000" fill-rule="nonzero"></path>
    </g>
</svg>